# UnrealEd OBJ exporter

v 0.000000 -5.250000 52.000000
v 0.000000 51.500000 52.000000
v 0.000000 -5.250000 47.000000
v 0.000000 51.500000 52.000000
v 0.000000 51.500000 47.000000
v 0.000000 -5.250000 47.000000
v 0.000000 10.750000 3.750000
v 0.000000 6.750000 7.000000
v 0.000000 11.854492 5.634766
v 0.000000 6.750000 7.000000
v 0.000000 8.945312 10.042969
v 0.000000 11.854492 5.634766
v 0.000000 11.854492 5.634766
v 0.000000 8.945312 10.042969
v 0.000000 13.042969 7.414062
v 0.000000 8.945312 10.042969
v 0.000000 11.281250 12.796875
v 0.000000 13.042969 7.414062
v 0.000000 13.042969 7.414062
v 0.000000 11.281250 12.796875
v 0.000000 15.671875 10.656250
v 0.000000 11.281250 12.796875
v 0.000000 16.375000 17.437500
v 0.000000 15.671875 10.656250
v 0.000000 15.671875 10.656250
v 0.000000 16.375000 17.437500
v 0.000000 18.636719 13.476562
v 0.000000 18.636719 13.476562
v 0.000000 16.375000 17.437500
v 0.000000 21.937500 15.875000
v 0.000000 16.375000 17.437500
v 0.000000 22.031250 20.921875
v 0.000000 21.937500 15.875000
v 0.000000 21.937500 15.875000
v 0.000000 22.031250 20.921875
v 0.000000 25.574219 17.851562
v 0.000000 22.031250 20.921875
v 0.000000 25.070312 22.230469
v 0.000000 25.574219 17.851562
v 0.000000 25.574219 17.851562
v 0.000000 25.070312 22.230469
v 0.000000 29.546875 19.406250
v 0.000000 25.070312 22.230469
v 0.000000 28.250000 23.250000
v 0.000000 29.546875 19.406250
v 0.000000 29.546875 19.406250
v 0.000000 28.250000 23.250000
v 0.000000 33.855469 20.539062
v 0.000000 33.855469 20.539062
v 0.000000 28.250000 23.250000
v 0.000000 33.800781 26.753906
v 0.000000 36.135742 20.947266
v 0.000000 33.855469 20.539062
v 0.000000 33.800781 26.753906
v 0.000000 33.800781 26.753906
v 0.000000 28.250000 23.250000
v 0.000000 29.703125 27.515625
v 0.000000 35.981445 26.563477
v 0.000000 36.135742 20.947266
v 0.000000 33.800781 26.753906
v 0.000000 29.703125 27.515625
v 0.000000 28.250000 23.250000
v 0.000000 26.873047 23.613281
v 0.000000 38.500000 21.250000
v 0.000000 36.135742 20.947266
v 0.000000 35.981445 26.563477
v 0.000000 25.957031 28.785156
v 0.000000 29.703125 27.515625
v 0.000000 26.873047 23.613281
v 0.000000 38.250000 26.500000
v 0.000000 38.500000 21.250000
v 0.000000 35.981445 26.563477
v 0.000000 25.492188 24.078125
v 0.000000 25.957031 28.785156
v 0.000000 26.873047 23.613281
v 0.000000 47.250000 26.500000
v 0.000000 38.500000 21.250000
v 0.000000 38.250000 26.500000
v 0.000000 47.250000 21.250000
v 0.000000 38.500000 21.250000
v 0.000000 47.250000 26.500000
v 0.000000 22.718750 25.312500
v 0.000000 25.957031 28.785156
v 0.000000 25.492188 24.078125
v 0.000000 22.562500 30.562500
v 0.000000 25.957031 28.785156
v 0.000000 22.718750 25.312500
v 0.000000 19.929688 26.953125
v 0.000000 22.562500 30.562500
v 0.000000 22.718750 25.312500
v 0.000000 18.529297 27.925781
v 0.000000 22.562500 30.562500
v 0.000000 19.929688 26.953125
v 0.000000 19.519531 32.847656
v 0.000000 22.562500 30.562500
v 0.000000 18.529297 27.925781
v 0.000000 17.125000 29.000000
v 0.000000 19.519531 32.847656
v 0.000000 18.529297 27.925781
v 0.000000 15.759766 30.148438
v 0.000000 19.519531 32.847656
v 0.000000 17.125000 29.000000
v 0.000000 14.476562 31.343750
v 0.000000 19.519531 32.847656
v 0.000000 15.759766 30.148438
v 0.000000 16.828125 35.640625
v 0.000000 19.519531 32.847656
v 0.000000 14.476562 31.343750
v 0.000000 12.156250 33.875000
v 0.000000 16.828125 35.640625
v 0.000000 14.476562 31.343750
v 0.000000 14.488281 38.941406
v 0.000000 16.828125 35.640625
v 0.000000 12.156250 33.875000
v 0.000000 10.164062 36.593750
v 0.000000 14.488281 38.941406
v 0.000000 12.156250 33.875000
v 0.000000 9.291016 38.023438
v 0.000000 14.488281 38.941406
v 0.000000 10.164062 36.593750
v 0.000000 13.450195 40.782227
v 0.000000 14.488281 38.941406
v 0.000000 9.291016 38.023438
v 0.000000 8.500000 39.500000
v 0.000000 13.450195 40.782227
v 0.000000 9.291016 38.023438
v 0.000000 12.500000 42.750000
v 0.000000 13.450195 40.782227
v 0.000000 8.500000 39.500000
v 0.000000 24.250000 69.000000
v 0.000000 20.250000 72.250000
v 0.000000 25.032227 70.736328
v 0.000000 20.250000 72.250000
v 0.000000 21.808594 75.175781
v 0.000000 25.032227 70.736328
v 0.000000 25.032227 70.736328
v 0.000000 21.808594 75.175781
v 0.000000 25.878906 72.382812
v 0.000000 21.808594 75.175781
v 0.000000 23.484375 77.828125
v 0.000000 25.878906 72.382812
v 0.000000 25.878906 72.382812
v 0.000000 23.484375 77.828125
v 0.000000 27.765625 75.406250
v 0.000000 27.765625 75.406250
v 0.000000 23.484375 77.828125
v 0.000000 29.910156 78.070312
v 0.000000 23.484375 77.828125
v 0.000000 27.187500 82.312500
v 0.000000 29.910156 78.070312
v 0.000000 29.910156 78.070312
v 0.000000 27.187500 82.312500
v 0.000000 32.312500 80.375000
v 0.000000 27.187500 82.312500
v 0.000000 29.214844 84.144531
v 0.000000 32.312500 80.375000
v 0.000000 29.214844 84.144531
v 0.000000 31.359375 85.703125
v 0.000000 32.312500 80.375000
v 0.000000 32.312500 80.375000
v 0.000000 31.359375 85.703125
v 0.000000 34.972656 82.320312
v 0.000000 31.359375 85.703125
v 0.000000 33.621094 86.988281
v 0.000000 34.972656 82.320312
v 0.000000 33.621094 86.988281
v 0.000000 34.795898 87.528320
v 0.000000 34.972656 82.320312
v 0.000000 34.972656 82.320312
v 0.000000 34.795898 87.528320
v 0.000000 37.890625 83.906250
v 0.000000 34.795898 87.528320
v 0.000000 36.000000 88.000000
v 0.000000 37.890625 83.906250
v 0.000000 37.890625 83.906250
v 0.000000 36.000000 88.000000
v 0.000000 41.066406 85.132812
v 0.000000 36.000000 88.000000
v 0.000000 41.378906 91.117188
v 0.000000 41.066406 85.132812
v 0.000000 41.066406 85.132812
v 0.000000 41.378906 91.117188
v 0.000000 42.750977 85.611328
v 0.000000 38.515625 91.968750
v 0.000000 41.378906 91.117188
v 0.000000 36.000000 88.000000
v 0.000000 41.378906 91.117188
v 0.000000 42.907227 90.873047
v 0.000000 42.750977 85.611328
v 0.000000 34.922852 88.414062
v 0.000000 38.515625 91.968750
v 0.000000 36.000000 88.000000
v 0.000000 42.750977 85.611328
v 0.000000 42.907227 90.873047
v 0.000000 44.500000 86.000000
v 0.000000 35.910156 93.304688
v 0.000000 38.515625 91.968750
v 0.000000 34.922852 88.414062
v 0.000000 33.878906 88.906250
v 0.000000 35.910156 93.304688
v 0.000000 34.922852 88.414062
v 0.000000 31.890625 90.125000
v 0.000000 35.910156 93.304688
v 0.000000 33.878906 88.906250
v 0.000000 33.562500 95.125000
v 0.000000 35.910156 93.304688
v 0.000000 31.890625 90.125000
v 0.000000 30.035156 91.656250
v 0.000000 33.562500 95.125000
v 0.000000 31.890625 90.125000
v 0.000000 28.312500 93.500000
v 0.000000 33.562500 95.125000
v 0.000000 30.035156 91.656250
v 0.000000 31.472656 97.429688
v 0.000000 33.562500 95.125000
v 0.000000 28.312500 93.500000
v 0.000000 26.722656 95.656250
v 0.000000 31.472656 97.429688
v 0.000000 28.312500 93.500000
v 0.000000 29.640625 100.218750
v 0.000000 31.472656 97.429688
v 0.000000 26.722656 95.656250
v 0.000000 25.265625 98.125000
v 0.000000 29.640625 100.218750
v 0.000000 26.722656 95.656250
v 0.000000 23.941406 100.906250
v 0.000000 29.640625 100.218750
v 0.000000 25.265625 98.125000
v 0.000000 28.066406 103.492188
v 0.000000 29.640625 100.218750
v 0.000000 23.941406 100.906250
v 0.000000 22.750000 104.000000
v 0.000000 28.066406 103.492188
v 0.000000 23.941406 100.906250
v 0.000000 27.375977 105.310547
v 0.000000 28.066406 103.492188
v 0.000000 22.750000 104.000000
v 0.000000 26.750000 107.250000
v 0.000000 27.375977 105.310547
v 0.000000 22.750000 104.000000
v 0.000000 42.907227 90.873047
v 0.000000 44.500000 90.750000
v 0.000000 44.500000 86.000000
v 0.000000 44.500000 104.000000
v 0.000000 49.250000 104.000000
v 0.000000 44.500000 90.750000
v 0.000000 44.500000 90.750000
v 0.000000 49.250000 104.000000
v 0.000000 44.500000 86.000000
v 0.000000 44.500000 86.000000
v 0.000000 49.250000 104.000000
v 0.000000 49.250000 72.000000
v 0.000000 44.500000 72.000000
v 0.000000 44.500000 86.000000
v 0.000000 49.250000 72.000000
v 0.000000 11.250000 111.000000
v 0.000000 16.000000 75.500000
v 0.000000 11.250000 75.500000
v 0.000000 16.000000 116.000000
v 0.000000 16.000000 75.500000
v 0.000000 11.250000 111.000000
v 0.000000 -5.250000 116.000000
v 0.000000 16.000000 116.000000
v 0.000000 11.250000 111.000000
v 0.000000 -5.250000 111.000000
v 0.000000 -5.250000 116.000000
v 0.000000 11.250000 111.000000
v 0.000000 19.750000 116.000000
v 0.000000 29.750000 116.000000
v 0.000000 19.750000 111.000000
v 0.000000 29.750000 116.000000
v 0.000000 34.500000 116.000000
v 0.000000 19.750000 111.000000
v 0.000000 29.750000 125.250000
v 0.000000 34.500000 116.000000
v 0.000000 29.750000 116.000000
v 0.000000 34.500000 125.250000
v 0.000000 34.500000 116.000000
v 0.000000 29.750000 125.250000
v 0.000000 34.500000 116.000000
v 0.000000 51.500000 111.000000
v 0.000000 19.750000 111.000000
v 0.000000 51.500000 116.000000
v 0.000000 51.500000 111.000000
v 0.000000 34.500000 116.000000
v 0.000000 8.500000 39.500000
v 33.300003 12.500000 42.750000
v 0.000000 12.500000 42.750000
v 33.300003 12.500000 42.750000
v 0.000000 8.500000 39.500000
v 33.300003 8.500000 39.500000
v 0.000000 47.250000 26.500000
v 33.300003 47.250000 21.250000
v 0.000000 47.250000 21.250000
v 33.300003 47.250000 21.250000
v 0.000000 47.250000 26.500000
v 33.300003 47.250000 26.500000
v 0.000000 10.750000 3.750000
v 33.300003 6.750000 7.000000
v 0.000000 6.750000 7.000000
v 33.300003 6.750000 7.000000
v 0.000000 10.750000 3.750000
v 33.300003 10.750000 3.750000
v 0.000000 28.249847 23.249954
v 33.300003 28.249847 23.250038
v 0.000000 28.249847 23.250038
v 33.300003 28.249847 23.250038
v 0.000000 28.249847 23.249954
v 33.300003 28.249847 23.249954
v 0.000000 28.249847 23.250038
v 33.300003 26.873047 23.613281
v 0.000000 26.873047 23.613281
v 33.300003 26.873047 23.613281
v 0.000000 28.249847 23.250038
v 33.300003 28.249847 23.250038
v 0.000000 -5.250000 47.000000
v 33.300003 -5.250000 52.000000
v 0.000000 -5.250000 52.000000
v 33.300003 -5.250000 52.000000
v 0.000000 -5.250000 47.000000
v 33.300003 -5.250000 47.000000
v 0.000000 -5.250000 52.000000
v 33.300003 51.500000 52.000000
v 0.000000 51.500000 52.000000
v 33.300003 51.500000 52.000000
v 0.000000 -5.250000 52.000000
v 33.300003 -5.250000 52.000000
v 0.000000 51.500000 52.000000
v 33.300003 51.500000 47.000000
v 0.000000 51.500000 47.000000
v 33.300003 51.500000 47.000000
v 0.000000 51.500000 52.000000
v 33.300003 51.500000 52.000000
v 0.000000 51.500000 47.000000
v 33.300003 -5.250000 47.000000
v 0.000000 -5.250000 47.000000
v 33.300003 -5.250000 47.000000
v 0.000000 51.500000 47.000000
v 33.300003 51.500000 47.000000
v 0.000000 49.250000 72.000000
v 33.300003 44.500000 72.000000
v 0.000000 44.500000 72.000000
v 33.300003 44.500000 72.000000
v 0.000000 49.250000 72.000000
v 33.300003 49.250000 72.000000
v 0.000000 44.500000 72.000000
v 33.300003 44.500000 86.000000
v 0.000000 44.500000 86.000000
v 33.300003 44.500000 86.000000
v 0.000000 44.500000 72.000000
v 33.300003 44.500000 72.000000
v 0.000000 24.250000 69.000000
v 33.300003 20.250000 72.250000
v 0.000000 20.250000 72.250000
v 33.300003 20.250000 72.250000
v 0.000000 24.250000 69.000000
v 33.300003 24.250000 69.000000
v 0.000000 35.999863 87.999939
v 33.300003 35.999847 88.000061
v 0.000000 35.999847 88.000061
v 33.300003 35.999847 88.000061
v 0.000000 35.999863 87.999939
v 33.300003 35.999863 87.999939
v 0.000000 22.750000 104.000000
v 33.300003 26.750000 107.250000
v 0.000000 26.750000 107.250000
v 33.300003 26.750000 107.250000
v 0.000000 22.750000 104.000000
v 33.300003 22.750000 104.000000
v 0.000000 44.500000 90.750000
v 33.300003 44.500000 104.000000
v 0.000000 44.500000 104.000000
v 33.300003 44.500000 104.000000
v 0.000000 44.500000 90.750000
v 33.300003 44.500000 90.750000
v 0.000000 44.500000 104.000000
v 33.300003 49.250000 104.000000
v 0.000000 49.250000 104.000000
v 33.300003 49.250000 104.000000
v 0.000000 44.500000 104.000000
v 33.300003 44.500000 104.000000
v 0.000000 49.250000 104.000000
v 33.300003 49.250000 72.000000
v 0.000000 49.250000 72.000000
v 33.300003 49.250000 72.000000
v 0.000000 49.250000 104.000000
v 33.300003 49.250000 104.000000
v 0.000000 19.750000 111.000000
v 33.300003 19.750000 116.000000
v 0.000000 19.750000 116.000000
v 33.300003 19.750000 116.000000
v 0.000000 19.750000 111.000000
v 33.300003 19.750000 111.000000
v 0.000000 19.750000 116.000000
v 33.300003 29.750000 116.000000
v 0.000000 29.750000 116.000000
v 33.300003 29.750000 116.000000
v 0.000000 19.750000 116.000000
v 33.300003 19.750000 116.000000
v 0.000000 29.750000 116.000000
v 33.300003 29.750000 125.250000
v 0.000000 29.750000 125.250000
v 33.300003 29.750000 125.250000
v 0.000000 29.750000 116.000000
v 33.300003 29.750000 116.000000
v 0.000000 29.750000 125.250000
v 33.300003 34.500000 125.250000
v 0.000000 34.500000 125.250000
v 33.300003 34.500000 125.250000
v 0.000000 29.750000 125.250000
v 33.300003 29.750000 125.250000
v 0.000000 34.500000 125.250000
v 33.300003 34.500000 116.000000
v 0.000000 34.500000 116.000000
v 33.300003 34.500000 116.000000
v 0.000000 34.500000 125.250000
v 33.300003 34.500000 125.250000
v 0.000000 34.500000 116.000000
v 33.300003 51.500000 116.000000
v 0.000000 51.500000 116.000000
v 33.300003 51.500000 116.000000
v 0.000000 34.500000 116.000000
v 33.300003 34.500000 116.000000
v 0.000000 51.500000 116.000000
v 33.300003 51.500000 111.000000
v 0.000000 51.500000 111.000000
v 33.300003 51.500000 111.000000
v 0.000000 51.500000 116.000000
v 33.300003 51.500000 116.000000
v 0.000000 51.500000 111.000000
v 33.300003 19.750000 111.000000
v 0.000000 19.750000 111.000000
v 33.300003 19.750000 111.000000
v 0.000000 51.500000 111.000000
v 33.300003 51.500000 111.000000
v 0.000000 11.250000 75.500000
v 33.300003 11.250000 111.000000
v 0.000000 11.250000 111.000000
v 33.300003 11.250000 111.000000
v 0.000000 11.250000 75.500000
v 33.300003 11.250000 75.500000
v 0.000000 11.250000 111.000000
v 33.300003 -5.250000 111.000000
v 0.000000 -5.250000 111.000000
v 33.300003 -5.250000 111.000000
v 0.000000 11.250000 111.000000
v 33.300003 11.250000 111.000000
v 0.000000 -5.250000 111.000000
v 33.300003 -5.250000 116.000000
v 0.000000 -5.250000 116.000000
v 33.300003 -5.250000 116.000000
v 0.000000 -5.250000 111.000000
v 33.300003 -5.250000 111.000000
v 0.000000 -5.250000 116.000000
v 33.300003 16.000000 116.000000
v 0.000000 16.000000 116.000000
v 33.300003 16.000000 116.000000
v 0.000000 -5.250000 116.000000
v 33.300003 -5.250000 116.000000
v 0.000000 16.000000 116.000000
v 33.300003 16.000000 75.500000
v 0.000000 16.000000 75.500000
v 33.300003 16.000000 75.500000
v 0.000000 16.000000 116.000000
v 33.300003 16.000000 116.000000
v 0.000000 16.000000 75.500000
v 33.300003 11.250000 75.500000
v 0.000000 11.250000 75.500000
v 33.300003 11.250000 75.500000
v 0.000000 16.000000 75.500000
v 33.300003 16.000000 75.500000
v 33.300003 25.492188 24.078125
v 0.000000 26.873047 23.613281
v 33.300003 26.873047 23.613281
v 0.000000 26.873047 23.613281
v 33.300003 25.492188 24.078125
v 0.000000 25.492188 24.078125
v 33.300003 22.718750 25.312500
v 0.000000 25.492188 24.078125
v 33.300003 25.492188 24.078125
v 0.000000 25.492188 24.078125
v 33.300003 22.718750 25.312500
v 0.000000 22.718750 25.312500
v 33.300003 19.929688 26.953125
v 0.000000 22.718750 25.312500
v 33.300003 22.718750 25.312500
v 0.000000 22.718750 25.312500
v 33.300003 19.929688 26.953125
v 0.000000 19.929688 26.953125
v 33.300003 18.529297 27.925781
v 0.000000 19.929688 26.953125
v 33.300003 19.929688 26.953125
v 0.000000 19.929688 26.953125
v 33.300003 18.529297 27.925781
v 0.000000 18.529297 27.925781
v 33.300003 17.125000 29.000000
v 0.000000 18.529297 27.925781
v 33.300003 18.529297 27.925781
v 0.000000 18.529297 27.925781
v 33.300003 17.125000 29.000000
v 0.000000 17.125000 29.000000
v 33.300003 15.759766 30.148438
v 0.000000 17.125000 29.000000
v 33.300003 17.125000 29.000000
v 0.000000 17.125000 29.000000
v 33.300003 15.759766 30.148438
v 0.000000 15.759766 30.148438
v 33.300003 14.476562 31.343750
v 0.000000 15.759766 30.148438
v 33.300003 15.759766 30.148438
v 0.000000 15.759766 30.148438
v 33.300003 14.476562 31.343750
v 0.000000 14.476562 31.343750
v 33.300003 12.156250 33.875000
v 0.000000 14.476562 31.343750
v 33.300003 14.476562 31.343750
v 0.000000 14.476562 31.343750
v 33.300003 12.156250 33.875000
v 0.000000 12.156250 33.875000
v 33.300003 10.164062 36.593750
v 0.000000 12.156250 33.875000
v 33.300003 12.156250 33.875000
v 0.000000 12.156250 33.875000
v 33.300003 10.164062 36.593750
v 0.000000 10.164062 36.593750
v 33.300003 9.291016 38.023438
v 0.000000 10.164062 36.593750
v 33.300003 10.164062 36.593750
v 0.000000 10.164062 36.593750
v 33.300003 9.291016 38.023438
v 0.000000 9.291016 38.023438
v 33.300003 8.500000 39.500000
v 0.000000 9.291016 38.023438
v 33.300003 9.291016 38.023438
v 0.000000 9.291016 38.023438
v 33.300003 8.500000 39.500000
v 0.000000 8.500000 39.500000
v 33.300003 13.450195 40.782227
v 0.000000 12.500000 42.750000
v 33.300003 12.500000 42.750000
v 0.000000 12.500000 42.750000
v 33.300003 13.450195 40.782227
v 0.000000 13.450195 40.782227
v 33.300003 14.488281 38.941406
v 0.000000 13.450195 40.782227
v 33.300003 13.450195 40.782227
v 0.000000 13.450195 40.782227
v 33.300003 14.488281 38.941406
v 0.000000 14.488281 38.941406
v 33.300003 16.828125 35.640625
v 0.000000 14.488281 38.941406
v 33.300003 14.488281 38.941406
v 0.000000 14.488281 38.941406
v 33.300003 16.828125 35.640625
v 0.000000 16.828125 35.640625
v 33.300003 19.519531 32.847656
v 0.000000 16.828125 35.640625
v 33.300003 16.828125 35.640625
v 0.000000 16.828125 35.640625
v 33.300003 19.519531 32.847656
v 0.000000 19.519531 32.847656
v 33.300003 22.562500 30.562500
v 0.000000 19.519531 32.847656
v 33.300003 19.519531 32.847656
v 0.000000 19.519531 32.847656
v 33.300003 22.562500 30.562500
v 0.000000 22.562500 30.562500
v 33.300003 25.957031 28.785156
v 0.000000 22.562500 30.562500
v 33.300003 22.562500 30.562500
v 0.000000 22.562500 30.562500
v 33.300003 25.957031 28.785156
v 0.000000 25.957031 28.785156
v 33.300003 29.703125 27.515625
v 0.000000 25.957031 28.785156
v 33.300003 25.957031 28.785156
v 0.000000 25.957031 28.785156
v 33.300003 29.703125 27.515625
v 0.000000 29.703125 27.515625
v 33.300003 33.800781 26.753906
v 0.000000 29.703125 27.515625
v 33.300003 29.703125 27.515625
v 0.000000 29.703125 27.515625
v 33.300003 33.800781 26.753906
v 0.000000 33.800781 26.753906
v 33.300003 35.981445 26.563477
v 0.000000 33.800781 26.753906
v 33.300003 33.800781 26.753906
v 0.000000 33.800781 26.753906
v 33.300003 35.981445 26.563477
v 0.000000 35.981445 26.563477
v 33.300003 38.250000 26.500000
v 0.000000 35.981445 26.563477
v 33.300003 35.981445 26.563477
v 0.000000 35.981445 26.563477
v 33.300003 38.250000 26.500000
v 0.000000 38.250000 26.500000
v 33.300003 47.250000 26.500000
v 0.000000 38.250000 26.500000
v 33.300003 38.250000 26.500000
v 0.000000 38.250000 26.500000
v 33.300003 47.250000 26.500000
v 0.000000 47.250000 26.500000
v 33.300003 38.500000 21.250000
v 0.000000 47.250000 21.250000
v 33.300003 47.250000 21.250000
v 0.000000 47.250000 21.250000
v 33.300003 38.500000 21.250000
v 0.000000 38.500000 21.250000
v 33.300003 36.135742 20.947266
v 0.000000 38.500000 21.250000
v 33.300003 38.500000 21.250000
v 0.000000 38.500000 21.250000
v 33.300003 36.135742 20.947266
v 0.000000 36.135742 20.947266
v 33.300003 33.855469 20.539062
v 0.000000 36.135742 20.947266
v 33.300003 36.135742 20.947266
v 0.000000 36.135742 20.947266
v 33.300003 33.855469 20.539062
v 0.000000 33.855469 20.539062
v 33.300003 29.546875 19.406250
v 0.000000 33.855469 20.539062
v 33.300003 33.855469 20.539062
v 0.000000 33.855469 20.539062
v 33.300003 29.546875 19.406250
v 0.000000 29.546875 19.406250
v 33.300003 25.574219 17.851562
v 0.000000 29.546875 19.406250
v 33.300003 29.546875 19.406250
v 0.000000 29.546875 19.406250
v 33.300003 25.574219 17.851562
v 0.000000 25.574219 17.851562
v 33.300003 21.937500 15.875000
v 0.000000 25.574219 17.851562
v 33.300003 25.574219 17.851562
v 0.000000 25.574219 17.851562
v 33.300003 21.937500 15.875000
v 0.000000 21.937500 15.875000
v 33.300003 18.636719 13.476562
v 0.000000 21.937500 15.875000
v 33.300003 21.937500 15.875000
v 0.000000 21.937500 15.875000
v 33.300003 18.636719 13.476562
v 0.000000 18.636719 13.476562
v 33.300003 15.671875 10.656250
v 0.000000 18.636719 13.476562
v 33.300003 18.636719 13.476562
v 0.000000 18.636719 13.476562
v 33.300003 15.671875 10.656250
v 0.000000 15.671875 10.656250
v 33.300003 13.042969 7.414062
v 0.000000 15.671875 10.656250
v 33.300003 15.671875 10.656250
v 0.000000 15.671875 10.656250
v 33.300003 13.042969 7.414062
v 0.000000 13.042969 7.414062
v 33.300003 11.854492 5.634766
v 0.000000 13.042969 7.414062
v 33.300003 13.042969 7.414062
v 0.000000 13.042969 7.414062
v 33.300003 11.854492 5.634766
v 0.000000 11.854492 5.634766
v 33.300003 10.750000 3.750000
v 0.000000 11.854492 5.634766
v 33.300003 11.854492 5.634766
v 0.000000 11.854492 5.634766
v 33.300003 10.750000 3.750000
v 0.000000 10.750000 3.750000
v 33.300003 8.945312 10.042969
v 0.000000 6.750000 7.000000
v 33.300003 6.750000 7.000000
v 0.000000 6.750000 7.000000
v 33.300003 8.945312 10.042969
v 0.000000 8.945312 10.042969
v 33.300003 11.281250 12.796875
v 0.000000 8.945312 10.042969
v 33.300003 8.945312 10.042969
v 0.000000 8.945312 10.042969
v 33.300003 11.281250 12.796875
v 0.000000 11.281250 12.796875
v 33.300003 16.375000 17.437500
v 0.000000 11.281250 12.796875
v 33.300003 11.281250 12.796875
v 0.000000 11.281250 12.796875
v 33.300003 16.375000 17.437500
v 0.000000 16.375000 17.437500
v 33.300003 22.031250 20.921875
v 0.000000 16.375000 17.437500
v 33.300003 16.375000 17.437500
v 0.000000 16.375000 17.437500
v 33.300003 22.031250 20.921875
v 0.000000 22.031250 20.921875
v 33.300003 25.070312 22.230469
v 0.000000 22.031250 20.921875
v 33.300003 22.031250 20.921875
v 0.000000 22.031250 20.921875
v 33.300003 25.070312 22.230469
v 0.000000 25.070312 22.230469
v 33.300003 28.249847 23.249954
v 0.000000 25.070312 22.230469
v 33.300003 25.070312 22.230469
v 0.000000 25.070312 22.230469
v 33.300003 28.249847 23.249954
v 0.000000 28.249847 23.249954
v 33.300003 42.750977 85.611328
v 0.000000 44.500000 86.000000
v 33.300003 44.500000 86.000000
v 0.000000 44.500000 86.000000
v 33.300003 42.750977 85.611328
v 0.000000 42.750977 85.611328
v 33.300003 41.066406 85.132812
v 0.000000 42.750977 85.611328
v 33.300003 42.750977 85.611328
v 0.000000 42.750977 85.611328
v 33.300003 41.066406 85.132812
v 0.000000 41.066406 85.132812
v 33.300003 37.890625 83.906250
v 0.000000 41.066406 85.132812
v 33.300003 41.066406 85.132812
v 0.000000 41.066406 85.132812
v 33.300003 37.890625 83.906250
v 0.000000 37.890625 83.906250
v 33.300003 34.972656 82.320312
v 0.000000 37.890625 83.906250
v 33.300003 37.890625 83.906250
v 0.000000 37.890625 83.906250
v 33.300003 34.972656 82.320312
v 0.000000 34.972656 82.320312
v 33.300003 32.312500 80.375000
v 0.000000 34.972656 82.320312
v 33.300003 34.972656 82.320312
v 0.000000 34.972656 82.320312
v 33.300003 32.312500 80.375000
v 0.000000 32.312500 80.375000
v 33.300003 29.910156 78.070312
v 0.000000 32.312500 80.375000
v 33.300003 32.312500 80.375000
v 0.000000 32.312500 80.375000
v 33.300003 29.910156 78.070312
v 0.000000 29.910156 78.070312
v 33.300003 27.765625 75.406250
v 0.000000 29.910156 78.070312
v 33.300003 29.910156 78.070312
v 0.000000 29.910156 78.070312
v 33.300003 27.765625 75.406250
v 0.000000 27.765625 75.406250
v 33.300003 25.878906 72.382812
v 0.000000 27.765625 75.406250
v 33.300003 27.765625 75.406250
v 0.000000 27.765625 75.406250
v 33.300003 25.878906 72.382812
v 0.000000 25.878906 72.382812
v 33.300003 25.032227 70.736328
v 0.000000 25.878906 72.382812
v 33.300003 25.878906 72.382812
v 0.000000 25.878906 72.382812
v 33.300003 25.032227 70.736328
v 0.000000 25.032227 70.736328
v 33.300003 24.250000 69.000000
v 0.000000 25.032227 70.736328
v 33.300003 25.032227 70.736328
v 0.000000 25.032227 70.736328
v 33.300003 24.250000 69.000000
v 0.000000 24.250000 69.000000
v 33.300003 21.808594 75.175781
v 0.000000 20.250000 72.250000
v 33.300003 20.250000 72.250000
v 0.000000 20.250000 72.250000
v 33.300003 21.808594 75.175781
v 0.000000 21.808594 75.175781
v 33.300003 23.484375 77.828125
v 0.000000 21.808594 75.175781
v 33.300003 21.808594 75.175781
v 0.000000 21.808594 75.175781
v 33.300003 23.484375 77.828125
v 0.000000 23.484375 77.828125
v 33.300003 27.187500 82.312500
v 0.000000 23.484375 77.828125
v 33.300003 23.484375 77.828125
v 0.000000 23.484375 77.828125
v 33.300003 27.187500 82.312500
v 0.000000 27.187500 82.312500
v 33.300003 29.214844 84.144531
v 0.000000 27.187500 82.312500
v 33.300003 27.187500 82.312500
v 0.000000 27.187500 82.312500
v 33.300003 29.214844 84.144531
v 0.000000 29.214844 84.144531
v 33.300003 31.359375 85.703125
v 0.000000 29.214844 84.144531
v 33.300003 29.214844 84.144531
v 0.000000 29.214844 84.144531
v 33.300003 31.359375 85.703125
v 0.000000 31.359375 85.703125
v 33.300003 33.621094 86.988281
v 0.000000 31.359375 85.703125
v 33.300003 31.359375 85.703125
v 0.000000 31.359375 85.703125
v 33.300003 33.621094 86.988281
v 0.000000 33.621094 86.988281
v 33.300003 34.795898 87.528320
v 0.000000 33.621094 86.988281
v 33.300003 33.621094 86.988281
v 0.000000 33.621094 86.988281
v 33.300003 34.795898 87.528320
v 0.000000 34.795898 87.528320
v 33.300003 35.999863 87.999939
v 0.000000 34.795898 87.528320
v 33.300003 34.795898 87.528320
v 0.000000 34.795898 87.528320
v 33.300003 35.999863 87.999939
v 0.000000 35.999863 87.999939
v 33.300003 34.922852 88.414062
v 0.000000 35.999847 88.000061
v 33.300003 35.999847 88.000061
v 0.000000 35.999847 88.000061
v 33.300003 34.922852 88.414062
v 0.000000 34.922852 88.414062
v 33.300003 33.878906 88.906250
v 0.000000 34.922852 88.414062
v 33.300003 34.922852 88.414062
v 0.000000 34.922852 88.414062
v 33.300003 33.878906 88.906250
v 0.000000 33.878906 88.906250
v 33.300003 31.890625 90.125000
v 0.000000 33.878906 88.906250
v 33.300003 33.878906 88.906250
v 0.000000 33.878906 88.906250
v 33.300003 31.890625 90.125000
v 0.000000 31.890625 90.125000
v 33.300003 30.035156 91.656250
v 0.000000 31.890625 90.125000
v 33.300003 31.890625 90.125000
v 0.000000 31.890625 90.125000
v 33.300003 30.035156 91.656250
v 0.000000 30.035156 91.656250
v 33.300003 28.312500 93.500000
v 0.000000 30.035156 91.656250
v 33.300003 30.035156 91.656250
v 0.000000 30.035156 91.656250
v 33.300003 28.312500 93.500000
v 0.000000 28.312500 93.500000
v 33.300003 26.722656 95.656250
v 0.000000 28.312500 93.500000
v 33.300003 28.312500 93.500000
v 0.000000 28.312500 93.500000
v 33.300003 26.722656 95.656250
v 0.000000 26.722656 95.656250
v 33.300003 25.265625 98.125000
v 0.000000 26.722656 95.656250
v 33.300003 26.722656 95.656250
v 0.000000 26.722656 95.656250
v 33.300003 25.265625 98.125000
v 0.000000 25.265625 98.125000
v 33.300003 23.941406 100.906250
v 0.000000 25.265625 98.125000
v 33.300003 25.265625 98.125000
v 0.000000 25.265625 98.125000
v 33.300003 23.941406 100.906250
v 0.000000 23.941406 100.906250
v 33.300003 22.750000 104.000000
v 0.000000 23.941406 100.906250
v 33.300003 23.941406 100.906250
v 0.000000 23.941406 100.906250
v 33.300003 22.750000 104.000000
v 0.000000 22.750000 104.000000
v 33.300003 27.375977 105.310547
v 0.000000 26.750000 107.250000
v 33.300003 26.750000 107.250000
v 0.000000 26.750000 107.250000
v 33.300003 27.375977 105.310547
v 0.000000 27.375977 105.310547
v 33.300003 28.066406 103.492188
v 0.000000 27.375977 105.310547
v 33.300003 27.375977 105.310547
v 0.000000 27.375977 105.310547
v 33.300003 28.066406 103.492188
v 0.000000 28.066406 103.492188
v 33.300003 29.640625 100.218750
v 0.000000 28.066406 103.492188
v 33.300003 28.066406 103.492188
v 0.000000 28.066406 103.492188
v 33.300003 29.640625 100.218750
v 0.000000 29.640625 100.218750
v 33.300003 31.472656 97.429688
v 0.000000 29.640625 100.218750
v 33.300003 29.640625 100.218750
v 0.000000 29.640625 100.218750
v 33.300003 31.472656 97.429688
v 0.000000 31.472656 97.429688
v 33.300003 33.562500 95.125000
v 0.000000 31.472656 97.429688
v 33.300003 31.472656 97.429688
v 0.000000 31.472656 97.429688
v 33.300003 33.562500 95.125000
v 0.000000 33.562500 95.125000
v 33.300003 35.910156 93.304688
v 0.000000 33.562500 95.125000
v 33.300003 33.562500 95.125000
v 0.000000 33.562500 95.125000
v 33.300003 35.910156 93.304688
v 0.000000 35.910156 93.304688
v 33.300003 38.515625 91.968750
v 0.000000 35.910156 93.304688
v 33.300003 35.910156 93.304688
v 0.000000 35.910156 93.304688
v 33.300003 38.515625 91.968750
v 0.000000 38.515625 91.968750
v 33.300003 41.378906 91.117188
v 0.000000 38.515625 91.968750
v 33.300003 38.515625 91.968750
v 0.000000 38.515625 91.968750
v 33.300003 41.378906 91.117188
v 0.000000 41.378906 91.117188
v 33.300003 42.907227 90.873047
v 0.000000 41.378906 91.117188
v 33.300003 41.378906 91.117188
v 0.000000 41.378906 91.117188
v 33.300003 42.907227 90.873047
v 0.000000 42.907227 90.873047
v 33.300003 44.500000 90.750000
v 0.000000 42.907227 90.873047
v 33.300003 42.907227 90.873047
v 0.000000 42.907227 90.873047
v 33.300003 44.500000 90.750000
v 0.000000 44.500000 90.750000
v 33.300003 -5.250000 52.000000
v 33.300003 -5.250000 47.000000
v 33.300003 51.500000 52.000000
v 33.300003 51.500000 52.000000
v 33.300003 -5.250000 47.000000
v 33.300003 51.500000 47.000000
v 33.300003 12.500000 42.750000
v 33.300003 8.500000 39.500000
v 33.300003 13.450195 40.782227
v 33.300003 8.500000 39.500000
v 33.300003 9.291016 38.023438
v 33.300003 13.450195 40.782227
v 33.300003 13.450195 40.782227
v 33.300003 9.291016 38.023438
v 33.300003 14.488281 38.941406
v 33.300003 9.291016 38.023438
v 33.300003 10.164062 36.593750
v 33.300003 14.488281 38.941406
v 33.300003 10.164062 36.593750
v 33.300003 12.156250 33.875000
v 33.300003 14.488281 38.941406
v 33.300003 14.488281 38.941406
v 33.300003 12.156250 33.875000
v 33.300003 16.828125 35.640625
v 33.300003 12.156250 33.875000
v 33.300003 14.476562 31.343750
v 33.300003 16.828125 35.640625
v 33.300003 16.828125 35.640625
v 33.300003 14.476562 31.343750
v 33.300003 19.519531 32.847656
v 33.300003 14.476562 31.343750
v 33.300003 15.759766 30.148438
v 33.300003 19.519531 32.847656
v 33.300003 15.759766 30.148438
v 33.300003 17.125000 29.000000
v 33.300003 19.519531 32.847656
v 33.300003 17.125000 29.000000
v 33.300003 18.529297 27.925781
v 33.300003 19.519531 32.847656
v 33.300003 19.519531 32.847656
v 33.300003 18.529297 27.925781
v 33.300003 22.562500 30.562500
v 33.300003 18.529297 27.925781
v 33.300003 19.929688 26.953125
v 33.300003 22.562500 30.562500
v 33.300003 19.929688 26.953125
v 33.300003 22.718750 25.312500
v 33.300003 22.562500 30.562500
v 33.300003 22.562500 30.562500
v 33.300003 22.718750 25.312500
v 33.300003 25.957031 28.785156
v 33.300003 22.718750 25.312500
v 33.300003 25.492188 24.078125
v 33.300003 25.957031 28.785156
v 33.300003 25.492188 24.078125
v 33.300003 26.873047 23.613281
v 33.300003 25.957031 28.785156
v 33.300003 25.957031 28.785156
v 33.300003 26.873047 23.613281
v 33.300003 29.703125 27.515625
v 33.300003 29.703125 27.515625
v 33.300003 26.873047 23.613281
v 33.300003 28.250000 23.250000
v 33.300003 33.800781 26.753906
v 33.300003 29.703125 27.515625
v 33.300003 28.250000 23.250000
v 33.300003 33.855469 20.539062
v 33.300003 33.800781 26.753906
v 33.300003 28.250000 23.250000
v 33.300003 36.135742 20.947266
v 33.300003 33.800781 26.753906
v 33.300003 33.855469 20.539062
v 33.300003 29.546875 19.406250
v 33.300003 33.855469 20.539062
v 33.300003 28.250000 23.250000
v 33.300003 35.981445 26.563477
v 33.300003 33.800781 26.753906
v 33.300003 36.135742 20.947266
v 33.300003 25.070312 22.230469
v 33.300003 29.546875 19.406250
v 33.300003 28.250000 23.250000
v 33.300003 38.500000 21.250000
v 33.300003 35.981445 26.563477
v 33.300003 36.135742 20.947266
v 33.300003 25.574219 17.851562
v 33.300003 29.546875 19.406250
v 33.300003 25.070312 22.230469
v 33.300003 38.250000 26.500000
v 33.300003 35.981445 26.563477
v 33.300003 38.500000 21.250000
v 33.300003 22.031250 20.921875
v 33.300003 25.574219 17.851562
v 33.300003 25.070312 22.230469
v 33.300003 47.250000 26.500000
v 33.300003 38.250000 26.500000
v 33.300003 38.500000 21.250000
v 33.300003 47.250000 21.250000
v 33.300003 47.250000 26.500000
v 33.300003 38.500000 21.250000
v 33.300003 21.937500 15.875000
v 33.300003 25.574219 17.851562
v 33.300003 22.031250 20.921875
v 33.300003 16.375000 17.437500
v 33.300003 21.937500 15.875000
v 33.300003 22.031250 20.921875
v 33.300003 18.636719 13.476562
v 33.300003 21.937500 15.875000
v 33.300003 16.375000 17.437500
v 33.300003 15.671875 10.656250
v 33.300003 18.636719 13.476562
v 33.300003 16.375000 17.437500
v 33.300003 11.281250 12.796875
v 33.300003 15.671875 10.656250
v 33.300003 16.375000 17.437500
v 33.300003 13.042969 7.414062
v 33.300003 15.671875 10.656250
v 33.300003 11.281250 12.796875
v 33.300003 8.945312 10.042969
v 33.300003 13.042969 7.414062
v 33.300003 11.281250 12.796875
v 33.300003 11.854492 5.634766
v 33.300003 13.042969 7.414062
v 33.300003 8.945312 10.042969
v 33.300003 6.750000 7.000000
v 33.300003 11.854492 5.634766
v 33.300003 8.945312 10.042969
v 33.300003 10.750000 3.750000
v 33.300003 11.854492 5.634766
v 33.300003 6.750000 7.000000
v 33.300003 24.250000 69.000000
v 33.300003 25.032227 70.736328
v 33.300003 20.250000 72.250000
v 33.300003 20.250000 72.250000
v 33.300003 25.032227 70.736328
v 33.300003 21.808594 75.175781
v 33.300003 25.032227 70.736328
v 33.300003 25.878906 72.382812
v 33.300003 21.808594 75.175781
v 33.300003 21.808594 75.175781
v 33.300003 25.878906 72.382812
v 33.300003 23.484375 77.828125
v 33.300003 25.878906 72.382812
v 33.300003 27.765625 75.406250
v 33.300003 23.484375 77.828125
v 33.300003 27.765625 75.406250
v 33.300003 29.910156 78.070312
v 33.300003 23.484375 77.828125
v 33.300003 23.484375 77.828125
v 33.300003 29.910156 78.070312
v 33.300003 27.187500 82.312500
v 33.300003 29.910156 78.070312
v 33.300003 32.312500 80.375000
v 33.300003 27.187500 82.312500
v 33.300003 27.187500 82.312500
v 33.300003 32.312500 80.375000
v 33.300003 29.214844 84.144531
v 33.300003 29.214844 84.144531
v 33.300003 32.312500 80.375000
v 33.300003 31.359375 85.703125
v 33.300003 32.312500 80.375000
v 33.300003 34.972656 82.320312
v 33.300003 31.359375 85.703125
v 33.300003 31.359375 85.703125
v 33.300003 34.972656 82.320312
v 33.300003 33.621094 86.988281
v 33.300003 33.621094 86.988281
v 33.300003 34.972656 82.320312
v 33.300003 34.795898 87.528320
v 33.300003 34.972656 82.320312
v 33.300003 37.890625 83.906250
v 33.300003 34.795898 87.528320
v 33.300003 34.795898 87.528320
v 33.300003 37.890625 83.906250
v 33.300003 36.000000 88.000000
v 33.300003 37.890625 83.906250
v 33.300003 41.066406 85.132812
v 33.300003 36.000000 88.000000
v 33.300003 36.000000 88.000000
v 33.300003 41.066406 85.132812
v 33.300003 41.378906 91.117188
v 33.300003 41.066406 85.132812
v 33.300003 42.750977 85.611328
v 33.300003 41.378906 91.117188
v 33.300003 38.515625 91.968750
v 33.300003 36.000000 88.000000
v 33.300003 41.378906 91.117188
v 33.300003 41.378906 91.117188
v 33.300003 42.750977 85.611328
v 33.300003 42.907227 90.873047
v 33.300003 34.922852 88.414062
v 33.300003 36.000000 88.000000
v 33.300003 38.515625 91.968750
v 33.300003 42.750977 85.611328
v 33.300003 44.500000 86.000000
v 33.300003 42.907227 90.873047
v 33.300003 35.910156 93.304688
v 33.300003 34.922852 88.414062
v 33.300003 38.515625 91.968750
v 33.300003 33.878906 88.906250
v 33.300003 34.922852 88.414062
v 33.300003 35.910156 93.304688
v 33.300003 31.890625 90.125000
v 33.300003 33.878906 88.906250
v 33.300003 35.910156 93.304688
v 33.300003 33.562500 95.125000
v 33.300003 31.890625 90.125000
v 33.300003 35.910156 93.304688
v 33.300003 30.035156 91.656250
v 33.300003 31.890625 90.125000
v 33.300003 33.562500 95.125000
v 33.300003 28.312500 93.500000
v 33.300003 30.035156 91.656250
v 33.300003 33.562500 95.125000
v 33.300003 31.472656 97.429688
v 33.300003 28.312500 93.500000
v 33.300003 33.562500 95.125000
v 33.300003 26.722656 95.656250
v 33.300003 28.312500 93.500000
v 33.300003 31.472656 97.429688
v 33.300003 29.640625 100.218750
v 33.300003 26.722656 95.656250
v 33.300003 31.472656 97.429688
v 33.300003 25.265625 98.125000
v 33.300003 26.722656 95.656250
v 33.300003 29.640625 100.218750
v 33.300003 23.941406 100.906250
v 33.300003 25.265625 98.125000
v 33.300003 29.640625 100.218750
v 33.300003 28.066406 103.492188
v 33.300003 23.941406 100.906250
v 33.300003 29.640625 100.218750
v 33.300003 22.750000 104.000000
v 33.300003 23.941406 100.906250
v 33.300003 28.066406 103.492188
v 33.300003 27.375977 105.310547
v 33.300003 22.750000 104.000000
v 33.300003 28.066406 103.492188
v 33.300003 26.750000 107.250000
v 33.300003 22.750000 104.000000
v 33.300003 27.375977 105.310547
v 33.300003 42.907227 90.873047
v 33.300003 44.500000 86.000000
v 33.300003 44.500000 90.750000
v 33.300003 44.500000 72.000000
v 33.300003 49.250000 72.000000
v 33.300003 44.500000 86.000000
v 33.300003 44.500000 86.000000
v 33.300003 49.250000 72.000000
v 33.300003 49.250000 104.000000
v 33.300003 44.500000 90.750000
v 33.300003 44.500000 86.000000
v 33.300003 49.250000 104.000000
v 33.300003 44.500000 104.000000
v 33.300003 44.500000 90.750000
v 33.300003 49.250000 104.000000
v 33.300003 11.250000 111.000000
v 33.300003 11.250000 75.500000
v 33.300003 16.000000 75.500000
v 33.300003 16.000000 116.000000
v 33.300003 11.250000 111.000000
v 33.300003 16.000000 75.500000
v 33.300003 -5.250000 116.000000
v 33.300003 11.250000 111.000000
v 33.300003 16.000000 116.000000
v 33.300003 -5.250000 111.000000
v 33.300003 11.250000 111.000000
v 33.300003 -5.250000 116.000000
v 33.300003 19.750000 116.000000
v 33.300003 19.750000 111.000000
v 33.300003 29.750000 116.000000
v 33.300003 29.750000 116.000000
v 33.300003 19.750000 111.000000
v 33.300003 34.500000 116.000000
v 33.300003 29.750000 125.250000
v 33.300003 29.750000 116.000000
v 33.300003 34.500000 116.000000
v 33.300003 34.500000 125.250000
v 33.300003 29.750000 125.250000
v 33.300003 34.500000 116.000000
v 33.300003 34.500000 116.000000
v 33.300003 19.750000 111.000000
v 33.300003 51.500000 111.000000
v 33.300003 51.500000 116.000000
v 33.300003 34.500000 116.000000
v 33.300003 51.500000 111.000000

vt 0.927734 0.000000
vt 0.927734 1.101929
vt 0.831543 0.000000
vt 0.927734 1.101929
vt 0.831543 1.101929
vt 0.831543 0.000000
vt 0.000000 0.310547
vt 0.062500 0.232910
vt 0.036255 0.332031
vt 0.062500 0.232910
vt 0.121033 0.275879
vt 0.036255 0.332031
vt 0.036255 0.332031
vt 0.121033 0.275879
vt 0.070435 0.354980
vt 0.121033 0.275879
vt 0.173950 0.320801
vt 0.070435 0.354980
vt 0.070435 0.354980
vt 0.173950 0.320801
vt 0.132812 0.406250
vt 0.173950 0.320801
vt 0.263184 0.419922
vt 0.132812 0.406250
vt 0.132812 0.406250
vt 0.263184 0.419922
vt 0.187012 0.463867
vt 0.187012 0.463867
vt 0.263184 0.419922
vt 0.233154 0.527832
vt 0.263184 0.419922
vt 0.330322 0.529785
vt 0.233154 0.527832
vt 0.233154 0.527832
vt 0.330322 0.529785
vt 0.271240 0.598633
vt 0.330322 0.529785
vt 0.355469 0.588623
vt 0.271240 0.598633
vt 0.271240 0.598633
vt 0.355469 0.588623
vt 0.301025 0.675781
vt 0.355469 0.588623
vt 0.375000 0.650391
vt 0.301025 0.675781
vt 0.301025 0.675781
vt 0.375000 0.650391
vt 0.322754 0.759277
vt 0.322754 0.759277
vt 0.375000 0.650391
vt 0.442383 0.758301
vt 0.330811 0.803589
vt 0.322754 0.759277
vt 0.442383 0.758301
vt 0.442383 0.758301
vt 0.375000 0.650391
vt 0.457031 0.678711
vt 0.438721 0.800659
vt 0.330811 0.803589
vt 0.442383 0.758301
vt 0.457031 0.678711
vt 0.375000 0.650391
vt 0.382080 0.623779
vt 0.336426 0.849487
vt 0.330811 0.803589
vt 0.438721 0.800659
vt 0.481445 0.605957
vt 0.457031 0.678711
vt 0.382080 0.623779
vt 0.437500 0.844604
vt 0.336426 0.849487
vt 0.438721 0.800659
vt 0.390869 0.596924
vt 0.481445 0.605957
vt 0.382080 0.623779
vt 0.437500 1.019424
vt 0.336426 0.849487
vt 0.437500 0.844604
vt 0.336426 1.019424
vt 0.336426 0.849487
vt 0.437500 1.019424
vt 0.414551 0.542969
vt 0.481445 0.605957
vt 0.390869 0.596924
vt 0.515625 0.540039
vt 0.481445 0.605957
vt 0.414551 0.542969
vt 0.446289 0.488770
vt 0.515625 0.540039
vt 0.414551 0.542969
vt 0.464844 0.461914
vt 0.515625 0.540039
vt 0.446289 0.488770
vt 0.559570 0.480957
vt 0.515625 0.540039
vt 0.464844 0.461914
vt 0.485596 0.434570
vt 0.559570 0.480957
vt 0.464844 0.461914
vt 0.507812 0.407715
vt 0.559570 0.480957
vt 0.485596 0.434570
vt 0.530762 0.382812
vt 0.559570 0.480957
vt 0.507812 0.407715
vt 0.613281 0.428711
vt 0.559570 0.480957
vt 0.530762 0.382812
vt 0.579102 0.337891
vt 0.613281 0.428711
vt 0.530762 0.382812
vt 0.676758 0.383301
vt 0.613281 0.428711
vt 0.579102 0.337891
vt 0.631836 0.299316
vt 0.676758 0.383301
vt 0.579102 0.337891
vt 0.659180 0.282227
vt 0.676758 0.383301
vt 0.631836 0.299316
vt 0.711914 0.363281
vt 0.676758 0.383301
vt 0.659180 0.282227
vt 0.687500 0.267090
vt 0.711914 0.363281
vt 0.659180 0.282227
vt 0.750000 0.344727
vt 0.711914 0.363281
vt 0.687500 0.267090
vt 0.000000 0.572754
vt 0.053070 0.495117
vt 0.028351 0.587891
vt 0.053070 0.495117
vt 0.100830 0.525391
vt 0.028351 0.587891
vt 0.028351 0.587891
vt 0.100830 0.525391
vt 0.055237 0.604492
vt 0.100830 0.525391
vt 0.144165 0.557861
vt 0.055237 0.604492
vt 0.055237 0.604492
vt 0.144165 0.557861
vt 0.104614 0.641113
vt 0.104614 0.641113
vt 0.144165 0.557861
vt 0.148071 0.682617
vt 0.144165 0.557861
vt 0.217407 0.629883
vt 0.148071 0.682617
vt 0.148071 0.682617
vt 0.217407 0.629883
vt 0.185669 0.729248
vt 0.217407 0.629883
vt 0.247314 0.669189
vt 0.185669 0.729248
vt 0.247314 0.669189
vt 0.272705 0.710938
vt 0.185669 0.729248
vt 0.185669 0.729248
vt 0.272705 0.710938
vt 0.217529 0.781006
vt 0.272705 0.710938
vt 0.293701 0.754761
vt 0.217529 0.781006
vt 0.293701 0.754761
vt 0.302490 0.777588
vt 0.217529 0.781006
vt 0.217529 0.781006
vt 0.302490 0.777588
vt 0.243408 0.837646
vt 0.302490 0.777588
vt 0.310303 0.801025
vt 0.243408 0.837646
vt 0.243408 0.837646
vt 0.310303 0.801025
vt 0.263428 0.899353
vt 0.310303 0.801025
vt 0.361084 0.905396
vt 0.263428 0.899353
vt 0.263428 0.899353
vt 0.361084 0.905396
vt 0.271240 0.932068
vt 0.375000 0.849854
vt 0.361084 0.905396
vt 0.310303 0.801025
vt 0.361084 0.905396
vt 0.357178 0.935120
vt 0.271240 0.932068
vt 0.316895 0.780029
vt 0.375000 0.849854
vt 0.310303 0.801025
vt 0.271240 0.932068
vt 0.357178 0.935120
vt 0.277588 0.966034
vt 0.396729 0.799194
vt 0.375000 0.849854
vt 0.316895 0.780029
vt 0.324951 0.759766
vt 0.396729 0.799194
vt 0.316895 0.780029
vt 0.344971 0.721191
vt 0.396729 0.799194
vt 0.324951 0.759766
vt 0.426514 0.753662
vt 0.396729 0.799194
vt 0.344971 0.721191
vt 0.369873 0.685059
vt 0.426514 0.753662
vt 0.344971 0.721191
vt 0.399902 0.651611
vt 0.426514 0.753662
vt 0.369873 0.685059
vt 0.464111 0.713135
vt 0.426514 0.753662
vt 0.399902 0.651611
vt 0.435303 0.620850
vt 0.464111 0.713135
vt 0.399902 0.651611
vt 0.509766 0.677490
vt 0.464111 0.713135
vt 0.435303 0.620850
vt 0.475586 0.592529
vt 0.509766 0.677490
vt 0.435303 0.620850
vt 0.520996 0.566895
vt 0.509766 0.677490
vt 0.475586 0.592529
vt 0.562988 0.646973
vt 0.509766 0.677490
vt 0.520996 0.566895
vt 0.571289 0.543701
vt 0.562988 0.646973
vt 0.520996 0.566895
vt 0.592773 0.633545
vt 0.562988 0.646973
vt 0.571289 0.543701
vt 0.624512 0.621338
vt 0.592773 0.633545
vt 0.571289 0.543701
vt 0.357178 0.935120
vt 0.354980 0.966034
vt 0.277588 0.966034
vt 0.571289 0.966034
vt 0.571289 1.058258
vt 0.354980 0.966034
vt 0.354980 0.966034
vt 0.571289 1.058258
vt 0.277588 0.966034
vt 0.277588 0.966034
vt 0.571289 1.058258
vt 0.048981 1.058258
vt 0.048981 0.966034
vt 0.277588 0.966034
vt 0.048981 1.058258
vt 0.685547 0.320312
vt 0.106140 0.412598
vt 0.106140 0.320312
vt 0.767578 0.412598
vt 0.106140 0.412598
vt 0.685547 0.320312
vt 0.767578 0.000000
vt 0.767578 0.412598
vt 0.685547 0.320312
vt 0.685547 0.000000
vt 0.767578 0.000000
vt 0.685547 0.320312
vt 0.767578 0.485352
vt 0.767578 0.679688
vt 0.685547 0.485352
vt 0.767578 0.679688
vt 0.767578 0.771851
vt 0.685547 0.485352
vt 0.918457 0.679688
vt 0.767578 0.771851
vt 0.767578 0.679688
vt 0.918457 0.771851
vt 0.767578 0.771851
vt 0.918457 0.679688
vt 0.767578 0.771851
vt 0.685547 1.101929
vt 0.685547 0.485352
vt 0.767578 1.101929
vt 0.685547 1.101929
vt 0.767578 0.771851
vt 0.000000 0.161621
vt 1.000000 0.195312
vt 0.000000 0.195312
vt 1.000000 0.195312
vt 0.000000 0.161621
vt 1.000000 0.161621
vt 0.000000 0.464844
vt 1.000000 0.499023
vt 0.000000 0.499023
vt 1.000000 0.499023
vt 0.000000 0.464844
vt 1.000000 0.464844
vt 0.000000 0.778198
vt 1.000000 0.811646
vt 0.000000 0.811646
vt 1.000000 0.811646
vt 0.000000 0.778198
vt 1.000000 0.778198
vt 0.000000 0.990746
vt 1.000000 0.990746
vt 0.000000 0.990746
vt 1.000000 0.990746
vt 0.000000 0.990746
vt 1.000000 0.990746
vt 0.000000 0.990746
vt 1.000000 1.000000
vt 0.000000 1.000000
vt 1.000000 1.000000
vt 0.000000 0.990746
vt 1.000000 0.990746
vt 0.000000 0.000000
vt 1.000000 0.040527
vt 0.000000 0.040527
vt 1.000000 0.040527
vt 0.000000 0.000000
vt 1.000000 0.000000
vt 0.000000 0.040527
vt 1.000000 0.500000
vt 0.000000 0.500000
vt 1.000000 0.500000
vt 0.000000 0.040527
vt 1.000000 0.040527
vt 0.000000 0.500000
vt 1.000000 0.540527
vt 0.000000 0.540527
vt 1.000000 0.540527
vt 0.000000 0.500000
vt 1.000000 0.500000
vt 0.000000 0.540527
vt 1.000000 1.000000
vt 0.000000 1.000000
vt 1.000000 1.000000
vt 0.000000 0.540527
vt 1.000000 0.540527
vt 0.000000 0.000000
vt 1.000000 0.026855
vt 0.000000 0.026855
vt 1.000000 0.026855
vt 0.000000 0.000000
vt 1.000000 0.000000
vt 0.000000 0.026855
vt 1.000000 0.105957
vt 0.000000 0.105957
vt 1.000000 0.105957
vt 0.000000 0.026855
vt 1.000000 0.026855
vt 0.000000 0.261719
vt 1.000000 0.291016
vt 0.000000 0.291016
vt 1.000000 0.291016
vt 0.000000 0.261719
vt 1.000000 0.261719
vt 0.000000 0.419922
vt 1.000000 0.419922
vt 0.000000 0.419922
vt 1.000000 0.419922
vt 0.000000 0.419922
vt 1.000000 0.419922
vt 0.000000 0.541260
vt 1.000000 0.570312
vt 0.000000 0.570312
vt 1.000000 0.570312
vt 0.000000 0.541260
vt 1.000000 0.541260
vt 0.000000 0.717773
vt 1.000000 0.792480
vt 0.000000 0.792480
vt 1.000000 0.792480
vt 0.000000 0.717773
vt 1.000000 0.717773
vt 0.000000 0.792480
vt 1.000000 0.819336
vt 0.000000 0.819336
vt 1.000000 0.819336
vt 0.000000 0.792480
vt 1.000000 0.792480
vt 0.000000 0.819336
vt 1.000000 1.000000
vt 0.000000 1.000000
vt 1.000000 1.000000
vt 0.000000 0.819336
vt 1.000000 0.819336
vt 0.000000 0.000000
vt 1.000000 0.054199
vt 0.000000 0.054199
vt 1.000000 0.054199
vt 0.000000 0.000000
vt 1.000000 0.000000
vt 0.000000 0.054199
vt 1.000000 0.163086
vt 0.000000 0.163086
vt 1.000000 0.163086
vt 0.000000 0.054199
vt 1.000000 0.054199
vt 0.000000 0.163086
vt 1.000000 0.263672
vt 0.000000 0.263672
vt 1.000000 0.263672
vt 0.000000 0.163086
vt 1.000000 0.163086
vt 0.000000 0.263672
vt 1.000000 0.315430
vt 0.000000 0.315430
vt 1.000000 0.315430
vt 0.000000 0.263672
vt 1.000000 0.263672
vt 0.000000 0.315430
vt 1.000000 0.415527
vt 0.000000 0.415527
vt 1.000000 0.415527
vt 0.000000 0.315430
vt 1.000000 0.315430
vt 0.000000 0.415527
vt 1.000000 0.600586
vt 0.000000 0.600586
vt 1.000000 0.600586
vt 0.000000 0.415527
vt 1.000000 0.415527
vt 0.000000 0.600586
vt 1.000000 0.654785
vt 0.000000 0.654785
vt 1.000000 0.654785
vt 0.000000 0.600586
vt 1.000000 0.600586
vt 0.000000 0.654785
vt 1.000000 1.000000
vt 0.000000 1.000000
vt 1.000000 1.000000
vt 0.000000 0.654785
vt 1.000000 0.654785
vt 0.000000 0.000000
vt 1.000000 0.287598
vt 0.000000 0.287598
vt 1.000000 0.287598
vt 0.000000 0.000000
vt 1.000000 0.000000
vt 0.000000 0.287598
vt 1.000000 0.420898
vt 0.000000 0.420898
vt 1.000000 0.420898
vt 0.000000 0.287598
vt 1.000000 0.287598
vt 0.000000 0.420898
vt 1.000000 0.461426
vt 0.000000 0.461426
vt 1.000000 0.461426
vt 0.000000 0.420898
vt 1.000000 0.420898
vt 0.000000 0.461426
vt 1.000000 0.633545
vt 0.000000 0.633545
vt 1.000000 0.633545
vt 0.000000 0.461426
vt 1.000000 0.461426
vt 0.000000 0.633545
vt 1.000000 0.961548
vt 0.000000 0.961548
vt 1.000000 0.961548
vt 0.000000 0.633545
vt 1.000000 0.633545
vt 0.000000 0.961548
vt 1.000000 1.000000
vt 0.000000 1.000000
vt 1.000000 1.000000
vt 0.000000 0.961548
vt 1.000000 0.961548
vt 1.000000 0.009277
vt 0.000000 0.000000
vt 1.000000 0.000000
vt 0.000000 0.000000
vt 1.000000 0.009277
vt 0.000000 0.009277
vt 1.000000 0.029297
vt 0.000000 0.009277
vt 1.000000 0.009277
vt 0.000000 0.009277
vt 1.000000 0.029297
vt 0.000000 0.029297
vt 1.000000 0.050293
vt 0.000000 0.029297
vt 1.000000 0.029297
vt 0.000000 0.029297
vt 1.000000 0.050293
vt 0.000000 0.050293
vt 1.000000 0.061523
vt 0.000000 0.050293
vt 1.000000 0.050293
vt 0.000000 0.050293
vt 1.000000 0.061523
vt 0.000000 0.061523
vt 1.000000 0.072754
vt 0.000000 0.061523
vt 1.000000 0.061523
vt 0.000000 0.061523
vt 1.000000 0.072754
vt 0.000000 0.072754
vt 1.000000 0.084473
vt 0.000000 0.072754
vt 1.000000 0.072754
vt 0.000000 0.072754
vt 1.000000 0.084473
vt 0.000000 0.084473
vt 1.000000 0.095703
vt 0.000000 0.084473
vt 1.000000 0.084473
vt 0.000000 0.084473
vt 1.000000 0.095703
vt 0.000000 0.095703
vt 1.000000 0.118164
vt 0.000000 0.095703
vt 1.000000 0.095703
vt 0.000000 0.095703
vt 1.000000 0.118164
vt 0.000000 0.118164
vt 1.000000 0.140137
vt 0.000000 0.118164
vt 1.000000 0.118164
vt 0.000000 0.118164
vt 1.000000 0.140137
vt 0.000000 0.140137
vt 1.000000 0.150879
vt 0.000000 0.140137
vt 1.000000 0.140137
vt 0.000000 0.140137
vt 1.000000 0.150879
vt 0.000000 0.150879
vt 1.000000 0.161621
vt 0.000000 0.150879
vt 1.000000 0.150879
vt 0.000000 0.150879
vt 1.000000 0.161621
vt 0.000000 0.161621
vt 1.000000 0.209473
vt 0.000000 0.195312
vt 1.000000 0.195312
vt 0.000000 0.195312
vt 1.000000 0.209473
vt 0.000000 0.209473
vt 1.000000 0.223145
vt 0.000000 0.209473
vt 1.000000 0.209473
vt 0.000000 0.209473
vt 1.000000 0.223145
vt 0.000000 0.223145
vt 1.000000 0.249512
vt 0.000000 0.223145
vt 1.000000 0.223145
vt 0.000000 0.223145
vt 1.000000 0.249512
vt 0.000000 0.249512
vt 1.000000 0.274902
vt 0.000000 0.249512
vt 1.000000 0.249512
vt 0.000000 0.249512
vt 1.000000 0.274902
vt 0.000000 0.274902
vt 1.000000 0.299316
vt 0.000000 0.274902
vt 1.000000 0.274902
vt 0.000000 0.274902
vt 1.000000 0.299316
vt 0.000000 0.299316
vt 1.000000 0.324219
vt 0.000000 0.299316
vt 1.000000 0.299316
vt 0.000000 0.299316
vt 1.000000 0.324219
vt 0.000000 0.324219
vt 1.000000 0.350098
vt 0.000000 0.324219
vt 1.000000 0.324219
vt 0.000000 0.324219
vt 1.000000 0.350098
vt 0.000000 0.350098
vt 1.000000 0.377441
vt 0.000000 0.350098
vt 1.000000 0.350098
vt 0.000000 0.350098
vt 1.000000 0.377441
vt 0.000000 0.377441
vt 1.000000 0.391602
vt 0.000000 0.377441
vt 1.000000 0.377441
vt 0.000000 0.377441
vt 1.000000 0.391602
vt 0.000000 0.391602
vt 1.000000 0.406250
vt 0.000000 0.391602
vt 1.000000 0.391602
vt 0.000000 0.391602
vt 1.000000 0.406250
vt 0.000000 0.406250
vt 1.000000 0.464844
vt 0.000000 0.406250
vt 1.000000 0.406250
vt 0.000000 0.406250
vt 1.000000 0.464844
vt 0.000000 0.464844
vt 1.000000 0.555664
vt 0.000000 0.499023
vt 1.000000 0.499023
vt 0.000000 0.499023
vt 1.000000 0.555664
vt 0.000000 0.555664
vt 1.000000 0.571289
vt 0.000000 0.555664
vt 1.000000 0.555664
vt 0.000000 0.555664
vt 1.000000 0.571289
vt 0.000000 0.571289
vt 1.000000 0.586182
vt 0.000000 0.571289
vt 1.000000 0.571289
vt 0.000000 0.571289
vt 1.000000 0.586182
vt 0.000000 0.586182
vt 1.000000 0.615234
vt 0.000000 0.586182
vt 1.000000 0.586182
vt 0.000000 0.586182
vt 1.000000 0.615234
vt 0.000000 0.615234
vt 1.000000 0.642822
vt 0.000000 0.615234
vt 1.000000 0.615234
vt 0.000000 0.615234
vt 1.000000 0.642822
vt 0.000000 0.642822
vt 1.000000 0.669922
vt 0.000000 0.642822
vt 1.000000 0.642822
vt 0.000000 0.642822
vt 1.000000 0.669922
vt 0.000000 0.669922
vt 1.000000 0.696289
vt 0.000000 0.669922
vt 1.000000 0.669922
vt 0.000000 0.669922
vt 1.000000 0.696289
vt 0.000000 0.696289
vt 1.000000 0.722900
vt 0.000000 0.696289
vt 1.000000 0.696289
vt 0.000000 0.696289
vt 1.000000 0.722900
vt 0.000000 0.722900
vt 1.000000 0.750122
vt 0.000000 0.722900
vt 1.000000 0.722900
vt 0.000000 0.722900
vt 1.000000 0.750122
vt 0.000000 0.750122
vt 1.000000 0.764038
vt 0.000000 0.750122
vt 1.000000 0.750122
vt 0.000000 0.750122
vt 1.000000 0.764038
vt 0.000000 0.764038
vt 1.000000 0.778198
vt 0.000000 0.764038
vt 1.000000 0.764038
vt 0.000000 0.764038
vt 1.000000 0.778198
vt 0.000000 0.778198
vt 1.000000 0.836060
vt 0.000000 0.811646
vt 1.000000 0.811646
vt 0.000000 0.811646
vt 1.000000 0.836060
vt 0.000000 0.836060
vt 1.000000 0.859619
vt 0.000000 0.836060
vt 1.000000 0.836060
vt 0.000000 0.836060
vt 1.000000 0.859619
vt 0.000000 0.859619
vt 1.000000 0.904358
vt 0.000000 0.859619
vt 1.000000 0.859619
vt 0.000000 0.859619
vt 1.000000 0.904358
vt 0.000000 0.904358
vt 1.000000 0.947540
vt 0.000000 0.904358
vt 1.000000 0.904358
vt 0.000000 0.904358
vt 1.000000 0.947540
vt 0.000000 0.947540
vt 1.000000 0.969040
vt 0.000000 0.947540
vt 1.000000 0.947540
vt 0.000000 0.947540
vt 1.000000 0.969040
vt 0.000000 0.969040
vt 1.000000 0.990746
vt 0.000000 0.969040
vt 1.000000 0.969040
vt 0.000000 0.969040
vt 1.000000 0.990746
vt 0.000000 0.990746
vt 1.000000 0.115723
vt 0.000000 0.105957
vt 1.000000 0.105957
vt 0.000000 0.105957
vt 1.000000 0.115723
vt 0.000000 0.115723
vt 1.000000 0.125977
vt 0.000000 0.115723
vt 1.000000 0.115723
vt 0.000000 0.115723
vt 1.000000 0.125977
vt 0.000000 0.125977
vt 1.000000 0.145020
vt 0.000000 0.125977
vt 1.000000 0.125977
vt 0.000000 0.125977
vt 1.000000 0.145020
vt 0.000000 0.145020
vt 1.000000 0.164062
vt 0.000000 0.145020
vt 1.000000 0.145020
vt 0.000000 0.145020
vt 1.000000 0.164062
vt 0.000000 0.164062
vt 1.000000 0.182617
vt 0.000000 0.164062
vt 1.000000 0.164062
vt 0.000000 0.164062
vt 1.000000 0.182617
vt 0.000000 0.182617
vt 1.000000 0.201172
vt 0.000000 0.182617
vt 1.000000 0.182617
vt 0.000000 0.182617
vt 1.000000 0.201172
vt 0.000000 0.201172
vt 1.000000 0.220703
vt 0.000000 0.201172
vt 1.000000 0.201172
vt 0.000000 0.201172
vt 1.000000 0.220703
vt 0.000000 0.220703
vt 1.000000 0.240723
vt 0.000000 0.220703
vt 1.000000 0.220703
vt 0.000000 0.220703
vt 1.000000 0.240723
vt 0.000000 0.240723
vt 1.000000 0.250977
vt 0.000000 0.240723
vt 1.000000 0.240723
vt 0.000000 0.240723
vt 1.000000 0.250977
vt 0.000000 0.250977
vt 1.000000 0.261719
vt 0.000000 0.250977
vt 1.000000 0.250977
vt 0.000000 0.250977
vt 1.000000 0.261719
vt 0.000000 0.261719
vt 1.000000 0.309570
vt 0.000000 0.291016
vt 1.000000 0.291016
vt 0.000000 0.291016
vt 1.000000 0.309570
vt 0.000000 0.309570
vt 1.000000 0.327148
vt 0.000000 0.309570
vt 1.000000 0.309570
vt 0.000000 0.309570
vt 1.000000 0.327148
vt 0.000000 0.327148
vt 1.000000 0.360352
vt 0.000000 0.327148
vt 1.000000 0.327148
vt 0.000000 0.327148
vt 1.000000 0.360352
vt 0.000000 0.360352
vt 1.000000 0.375488
vt 0.000000 0.360352
vt 1.000000 0.360352
vt 0.000000 0.360352
vt 1.000000 0.375488
vt 0.000000 0.375488
vt 1.000000 0.390625
vt 0.000000 0.375488
vt 1.000000 0.375488
vt 0.000000 0.375488
vt 1.000000 0.390625
vt 0.000000 0.390625
vt 1.000000 0.405273
vt 0.000000 0.390625
vt 1.000000 0.390625
vt 0.000000 0.390625
vt 1.000000 0.405273
vt 0.000000 0.405273
vt 1.000000 0.412598
vt 0.000000 0.405273
vt 1.000000 0.405273
vt 0.000000 0.405273
vt 1.000000 0.412598
vt 0.000000 0.412598
vt 1.000000 0.419922
vt 0.000000 0.412598
vt 1.000000 0.412598
vt 0.000000 0.412598
vt 1.000000 0.419922
vt 0.000000 0.419922
vt 1.000000 0.426270
vt 0.000000 0.419922
vt 1.000000 0.419922
vt 0.000000 0.419922
vt 1.000000 0.426270
vt 0.000000 0.426270
vt 1.000000 0.433105
vt 0.000000 0.426270
vt 1.000000 0.426270
vt 0.000000 0.426270
vt 1.000000 0.433105
vt 0.000000 0.433105
vt 1.000000 0.446289
vt 0.000000 0.433105
vt 1.000000 0.433105
vt 0.000000 0.433105
vt 1.000000 0.446289
vt 0.000000 0.446289
vt 1.000000 0.459473
vt 0.000000 0.446289
vt 1.000000 0.446289
vt 0.000000 0.446289
vt 1.000000 0.459473
vt 0.000000 0.459473
vt 1.000000 0.474121
vt 0.000000 0.459473
vt 1.000000 0.459473
vt 0.000000 0.459473
vt 1.000000 0.474121
vt 0.000000 0.474121
vt 1.000000 0.489258
vt 0.000000 0.474121
vt 1.000000 0.474121
vt 0.000000 0.474121
vt 1.000000 0.489258
vt 0.000000 0.489258
vt 1.000000 0.505127
vt 0.000000 0.489258
vt 1.000000 0.489258
vt 0.000000 0.489258
vt 1.000000 0.505127
vt 0.000000 0.505127
vt 1.000000 0.522705
vt 0.000000 0.505127
vt 1.000000 0.505127
vt 0.000000 0.505127
vt 1.000000 0.522705
vt 0.000000 0.522705
vt 1.000000 0.541260
vt 0.000000 0.522705
vt 1.000000 0.522705
vt 0.000000 0.522705
vt 1.000000 0.541260
vt 0.000000 0.541260
vt 1.000000 0.582031
vt 0.000000 0.570312
vt 1.000000 0.570312
vt 0.000000 0.570312
vt 1.000000 0.582031
vt 0.000000 0.582031
vt 1.000000 0.593018
vt 0.000000 0.582031
vt 1.000000 0.582031
vt 0.000000 0.582031
vt 1.000000 0.593018
vt 0.000000 0.593018
vt 1.000000 0.613525
vt 0.000000 0.593018
vt 1.000000 0.593018
vt 0.000000 0.593018
vt 1.000000 0.613525
vt 0.000000 0.613525
vt 1.000000 0.632324
vt 0.000000 0.613525
vt 1.000000 0.613525
vt 0.000000 0.613525
vt 1.000000 0.632324
vt 0.000000 0.632324
vt 1.000000 0.649902
vt 0.000000 0.632324
vt 1.000000 0.632324
vt 0.000000 0.632324
vt 1.000000 0.649902
vt 0.000000 0.649902
vt 1.000000 0.666504
vt 0.000000 0.649902
vt 1.000000 0.649902
vt 0.000000 0.649902
vt 1.000000 0.666504
vt 0.000000 0.666504
vt 1.000000 0.683105
vt 0.000000 0.666504
vt 1.000000 0.666504
vt 0.000000 0.666504
vt 1.000000 0.683105
vt 0.000000 0.683105
vt 1.000000 0.699951
vt 0.000000 0.683105
vt 1.000000 0.683105
vt 0.000000 0.683105
vt 1.000000 0.699951
vt 0.000000 0.699951
vt 1.000000 0.708740
vt 0.000000 0.699951
vt 1.000000 0.699951
vt 0.000000 0.699951
vt 1.000000 0.708740
vt 0.000000 0.708740
vt 1.000000 0.717773
vt 0.000000 0.708740
vt 1.000000 0.708740
vt 0.000000 0.708740
vt 1.000000 0.717773
vt 0.000000 0.717773
vt 0.927734 0.000000
vt 0.831543 0.000000
vt 0.927734 1.101929
vt 0.927734 1.101929
vt 0.831543 0.000000
vt 0.831543 1.101929
vt 0.750000 0.344727
vt 0.687500 0.267090
vt 0.711914 0.363281
vt 0.687500 0.267090
vt 0.659180 0.282227
vt 0.711914 0.363281
vt 0.711914 0.363281
vt 0.659180 0.282227
vt 0.676758 0.383301
vt 0.659180 0.282227
vt 0.631836 0.299316
vt 0.676758 0.383301
vt 0.631836 0.299316
vt 0.579102 0.337891
vt 0.676758 0.383301
vt 0.676758 0.383301
vt 0.579102 0.337891
vt 0.613281 0.428711
vt 0.579102 0.337891
vt 0.530762 0.382812
vt 0.613281 0.428711
vt 0.613281 0.428711
vt 0.530762 0.382812
vt 0.559570 0.480957
vt 0.530762 0.382812
vt 0.507812 0.407715
vt 0.559570 0.480957
vt 0.507812 0.407715
vt 0.485596 0.434570
vt 0.559570 0.480957
vt 0.485596 0.434570
vt 0.464844 0.461914
vt 0.559570 0.480957
vt 0.559570 0.480957
vt 0.464844 0.461914
vt 0.515625 0.540039
vt 0.464844 0.461914
vt 0.446289 0.488770
vt 0.515625 0.540039
vt 0.446289 0.488770
vt 0.414551 0.542969
vt 0.515625 0.540039
vt 0.515625 0.540039
vt 0.414551 0.542969
vt 0.481445 0.605957
vt 0.414551 0.542969
vt 0.390869 0.596924
vt 0.481445 0.605957
vt 0.390869 0.596924
vt 0.382080 0.623779
vt 0.481445 0.605957
vt 0.481445 0.605957
vt 0.382080 0.623779
vt 0.457031 0.678711
vt 0.457031 0.678711
vt 0.382080 0.623779
vt 0.375000 0.650391
vt 0.442383 0.758301
vt 0.457031 0.678711
vt 0.375000 0.650391
vt 0.322754 0.759277
vt 0.442383 0.758301
vt 0.375000 0.650391
vt 0.330811 0.803589
vt 0.442383 0.758301
vt 0.322754 0.759277
vt 0.301025 0.675781
vt 0.322754 0.759277
vt 0.375000 0.650391
vt 0.438721 0.800659
vt 0.442383 0.758301
vt 0.330811 0.803589
vt 0.355469 0.588623
vt 0.301025 0.675781
vt 0.375000 0.650391
vt 0.336426 0.849487
vt 0.438721 0.800659
vt 0.330811 0.803589
vt 0.271240 0.598633
vt 0.301025 0.675781
vt 0.355469 0.588623
vt 0.437500 0.844604
vt 0.438721 0.800659
vt 0.336426 0.849487
vt 0.330322 0.529785
vt 0.271240 0.598633
vt 0.355469 0.588623
vt 0.437500 1.019424
vt 0.437500 0.844604
vt 0.336426 0.849487
vt 0.336426 1.019424
vt 0.437500 1.019424
vt 0.336426 0.849487
vt 0.233154 0.527832
vt 0.271240 0.598633
vt 0.330322 0.529785
vt 0.263184 0.419922
vt 0.233154 0.527832
vt 0.330322 0.529785
vt 0.187012 0.463867
vt 0.233154 0.527832
vt 0.263184 0.419922
vt 0.132812 0.406250
vt 0.187012 0.463867
vt 0.263184 0.419922
vt 0.173950 0.320801
vt 0.132812 0.406250
vt 0.263184 0.419922
vt 0.070435 0.354980
vt 0.132812 0.406250
vt 0.173950 0.320801
vt 0.121033 0.275879
vt 0.070435 0.354980
vt 0.173950 0.320801
vt 0.036255 0.332031
vt 0.070435 0.354980
vt 0.121033 0.275879
vt 0.062500 0.232910
vt 0.036255 0.332031
vt 0.121033 0.275879
vt 0.000000 0.310547
vt 0.036255 0.332031
vt 0.062500 0.232910
vt 0.000000 0.572754
vt 0.028351 0.587891
vt 0.053070 0.495117
vt 0.053070 0.495117
vt 0.028351 0.587891
vt 0.100830 0.525391
vt 0.028351 0.587891
vt 0.055237 0.604492
vt 0.100830 0.525391
vt 0.100830 0.525391
vt 0.055237 0.604492
vt 0.144165 0.557861
vt 0.055237 0.604492
vt 0.104614 0.641113
vt 0.144165 0.557861
vt 0.104614 0.641113
vt 0.148071 0.682617
vt 0.144165 0.557861
vt 0.144165 0.557861
vt 0.148071 0.682617
vt 0.217407 0.629883
vt 0.148071 0.682617
vt 0.185669 0.729248
vt 0.217407 0.629883
vt 0.217407 0.629883
vt 0.185669 0.729248
vt 0.247314 0.669189
vt 0.247314 0.669189
vt 0.185669 0.729248
vt 0.272705 0.710938
vt 0.185669 0.729248
vt 0.217529 0.781006
vt 0.272705 0.710938
vt 0.272705 0.710938
vt 0.217529 0.781006
vt 0.293701 0.754761
vt 0.293701 0.754761
vt 0.217529 0.781006
vt 0.302490 0.777588
vt 0.217529 0.781006
vt 0.243408 0.837646
vt 0.302490 0.777588
vt 0.302490 0.777588
vt 0.243408 0.837646
vt 0.310303 0.801025
vt 0.243408 0.837646
vt 0.263428 0.899353
vt 0.310303 0.801025
vt 0.310303 0.801025
vt 0.263428 0.899353
vt 0.361084 0.905396
vt 0.263428 0.899353
vt 0.271240 0.932068
vt 0.361084 0.905396
vt 0.375000 0.849854
vt 0.310303 0.801025
vt 0.361084 0.905396
vt 0.361084 0.905396
vt 0.271240 0.932068
vt 0.357178 0.935120
vt 0.316895 0.780029
vt 0.310303 0.801025
vt 0.375000 0.849854
vt 0.271240 0.932068
vt 0.277588 0.966034
vt 0.357178 0.935120
vt 0.396729 0.799194
vt 0.316895 0.780029
vt 0.375000 0.849854
vt 0.324951 0.759766
vt 0.316895 0.780029
vt 0.396729 0.799194
vt 0.344971 0.721191
vt 0.324951 0.759766
vt 0.396729 0.799194
vt 0.426514 0.753662
vt 0.344971 0.721191
vt 0.396729 0.799194
vt 0.369873 0.685059
vt 0.344971 0.721191
vt 0.426514 0.753662
vt 0.399902 0.651611
vt 0.369873 0.685059
vt 0.426514 0.753662
vt 0.464111 0.713135
vt 0.399902 0.651611
vt 0.426514 0.753662
vt 0.435303 0.620850
vt 0.399902 0.651611
vt 0.464111 0.713135
vt 0.509766 0.677490
vt 0.435303 0.620850
vt 0.464111 0.713135
vt 0.475586 0.592529
vt 0.435303 0.620850
vt 0.509766 0.677490
vt 0.520996 0.566895
vt 0.475586 0.592529
vt 0.509766 0.677490
vt 0.562988 0.646973
vt 0.520996 0.566895
vt 0.509766 0.677490
vt 0.571289 0.543701
vt 0.520996 0.566895
vt 0.562988 0.646973
vt 0.592773 0.633545
vt 0.571289 0.543701
vt 0.562988 0.646973
vt 0.624512 0.621338
vt 0.571289 0.543701
vt 0.592773 0.633545
vt 0.357178 0.935120
vt 0.277588 0.966034
vt 0.354980 0.966034
vt 0.048981 0.966034
vt 0.048981 1.058258
vt 0.277588 0.966034
vt 0.277588 0.966034
vt 0.048981 1.058258
vt 0.571289 1.058258
vt 0.354980 0.966034
vt 0.277588 0.966034
vt 0.571289 1.058258
vt 0.571289 0.966034
vt 0.354980 0.966034
vt 0.571289 1.058258
vt 0.685547 0.320312
vt 0.106140 0.320312
vt 0.106140 0.412598
vt 0.767578 0.412598
vt 0.685547 0.320312
vt 0.106140 0.412598
vt 0.767578 0.000000
vt 0.685547 0.320312
vt 0.767578 0.412598
vt 0.685547 0.000000
vt 0.685547 0.320312
vt 0.767578 0.000000
vt 0.767578 0.485352
vt 0.685547 0.485352
vt 0.767578 0.679688
vt 0.767578 0.679688
vt 0.685547 0.485352
vt 0.767578 0.771851
vt 0.918457 0.679688
vt 0.767578 0.679688
vt 0.767578 0.771851
vt 0.918457 0.771851
vt 0.918457 0.679688
vt 0.767578 0.771851
vt 0.767578 0.771851
vt 0.685547 0.485352
vt 0.685547 1.101929
vt 0.767578 1.101929
vt 0.767578 0.771851
vt 0.685547 1.101929

g UnrealEdObject

s 0
f 1/1 2/2 3/3
f 4/4 5/5 6/6
f 7/7 8/8 9/9
f 10/10 11/11 12/12
f 13/13 14/14 15/15
f 16/16 17/17 18/18
f 19/19 20/20 21/21
f 22/22 23/23 24/24
f 25/25 26/26 27/27
f 28/28 29/29 30/30
f 31/31 32/32 33/33
f 34/34 35/35 36/36
f 37/37 38/38 39/39
f 40/40 41/41 42/42
f 43/43 44/44 45/45
f 46/46 47/47 48/48
f 49/49 50/50 51/51
f 52/52 53/53 54/54
f 55/55 56/56 57/57
f 58/58 59/59 60/60
f 61/61 62/62 63/63
f 64/64 65/65 66/66
f 67/67 68/68 69/69
f 70/70 71/71 72/72
f 73/73 74/74 75/75
f 76/76 77/77 78/78
f 79/79 80/80 81/81
f 82/82 83/83 84/84
f 85/85 86/86 87/87
f 88/88 89/89 90/90
f 91/91 92/92 93/93
f 94/94 95/95 96/96
f 97/97 98/98 99/99
f 100/100 101/101 102/102
f 103/103 104/104 105/105
f 106/106 107/107 108/108
f 109/109 110/110 111/111
f 112/112 113/113 114/114
f 115/115 116/116 117/117
f 118/118 119/119 120/120
f 121/121 122/122 123/123
f 124/124 125/125 126/126
f 127/127 128/128 129/129
f 130/130 131/131 132/132
f 133/133 134/134 135/135
f 136/136 137/137 138/138
f 139/139 140/140 141/141
f 142/142 143/143 144/144
f 145/145 146/146 147/147
f 148/148 149/149 150/150
f 151/151 152/152 153/153
f 154/154 155/155 156/156
f 157/157 158/158 159/159
f 160/160 161/161 162/162
f 163/163 164/164 165/165
f 166/166 167/167 168/168
f 169/169 170/170 171/171
f 172/172 173/173 174/174
f 175/175 176/176 177/177
f 178/178 179/179 180/180
f 181/181 182/182 183/183
f 184/184 185/185 186/186
f 187/187 188/188 189/189
f 190/190 191/191 192/192
f 193/193 194/194 195/195
f 196/196 197/197 198/198
f 199/199 200/200 201/201
f 202/202 203/203 204/204
f 205/205 206/206 207/207
f 208/208 209/209 210/210
f 211/211 212/212 213/213
f 214/214 215/215 216/216
f 217/217 218/218 219/219
f 220/220 221/221 222/222
f 223/223 224/224 225/225
f 226/226 227/227 228/228
f 229/229 230/230 231/231
f 232/232 233/233 234/234
f 235/235 236/236 237/237
f 238/238 239/239 240/240
f 241/241 242/242 243/243
f 244/244 245/245 246/246
f 247/247 248/248 249/249
f 250/250 251/251 252/252
f 253/253 254/254 255/255
f 256/256 257/257 258/258
f 259/259 260/260 261/261
f 262/262 263/263 264/264
f 265/265 266/266 267/267
f 268/268 269/269 270/270
f 271/271 272/272 273/273
f 274/274 275/275 276/276
f 277/277 278/278 279/279
f 280/280 281/281 282/282
f 283/283 284/284 285/285
f 286/286 287/287 288/288
f 289/289 290/290 291/291
f 292/292 293/293 294/294
f 295/295 296/296 297/297
f 298/298 299/299 300/300
f 301/301 302/302 303/303
f 304/304 305/305 306/306
f 307/307 308/308 309/309
f 310/310 311/311 312/312
f 313/313 314/314 315/315
f 316/316 317/317 318/318
f 319/319 320/320 321/321
f 322/322 323/323 324/324
f 325/325 326/326 327/327
f 328/328 329/329 330/330
f 331/331 332/332 333/333
f 334/334 335/335 336/336
f 337/337 338/338 339/339
f 340/340 341/341 342/342
f 343/343 344/344 345/345
f 346/346 347/347 348/348
f 349/349 350/350 351/351
f 352/352 353/353 354/354
f 355/355 356/356 357/357
f 358/358 359/359 360/360
f 361/361 362/362 363/363
f 364/364 365/365 366/366
f 367/367 368/368 369/369
f 370/370 371/371 372/372
f 373/373 374/374 375/375
f 376/376 377/377 378/378
f 379/379 380/380 381/381
f 382/382 383/383 384/384
f 385/385 386/386 387/387
f 388/388 389/389 390/390
f 391/391 392/392 393/393
f 394/394 395/395 396/396
f 397/397 398/398 399/399
f 400/400 401/401 402/402
f 403/403 404/404 405/405
f 406/406 407/407 408/408
f 409/409 410/410 411/411
f 412/412 413/413 414/414
f 415/415 416/416 417/417
f 418/418 419/419 420/420
f 421/421 422/422 423/423
f 424/424 425/425 426/426
f 427/427 428/428 429/429
f 430/430 431/431 432/432
f 433/433 434/434 435/435
f 436/436 437/437 438/438
f 439/439 440/440 441/441
f 442/442 443/443 444/444
f 445/445 446/446 447/447
f 448/448 449/449 450/450
f 451/451 452/452 453/453
f 454/454 455/455 456/456
f 457/457 458/458 459/459
f 460/460 461/461 462/462
f 463/463 464/464 465/465
f 466/466 467/467 468/468
f 469/469 470/470 471/471
f 472/472 473/473 474/474
f 475/475 476/476 477/477
f 478/478 479/479 480/480
f 481/481 482/482 483/483
f 484/484 485/485 486/486
f 487/487 488/488 489/489
f 490/490 491/491 492/492
f 493/493 494/494 495/495
f 496/496 497/497 498/498
f 499/499 500/500 501/501
f 502/502 503/503 504/504
f 505/505 506/506 507/507
f 508/508 509/509 510/510
f 511/511 512/512 513/513
f 514/514 515/515 516/516
f 517/517 518/518 519/519
f 520/520 521/521 522/522
f 523/523 524/524 525/525
f 526/526 527/527 528/528
f 529/529 530/530 531/531
f 532/532 533/533 534/534
f 535/535 536/536 537/537
f 538/538 539/539 540/540
f 541/541 542/542 543/543
f 544/544 545/545 546/546
f 547/547 548/548 549/549
f 550/550 551/551 552/552
f 553/553 554/554 555/555
f 556/556 557/557 558/558
f 559/559 560/560 561/561
f 562/562 563/563 564/564
f 565/565 566/566 567/567
f 568/568 569/569 570/570
f 571/571 572/572 573/573
f 574/574 575/575 576/576
f 577/577 578/578 579/579
f 580/580 581/581 582/582
f 583/583 584/584 585/585
f 586/586 587/587 588/588
f 589/589 590/590 591/591
f 592/592 593/593 594/594
f 595/595 596/596 597/597
f 598/598 599/599 600/600
f 601/601 602/602 603/603
f 604/604 605/605 606/606
f 607/607 608/608 609/609
f 610/610 611/611 612/612
f 613/613 614/614 615/615
f 616/616 617/617 618/618
f 619/619 620/620 621/621
f 622/622 623/623 624/624
f 625/625 626/626 627/627
f 628/628 629/629 630/630
f 631/631 632/632 633/633
f 634/634 635/635 636/636
f 637/637 638/638 639/639
f 640/640 641/641 642/642
f 643/643 644/644 645/645
f 646/646 647/647 648/648
f 649/649 650/650 651/651
f 652/652 653/653 654/654
f 655/655 656/656 657/657
f 658/658 659/659 660/660
f 661/661 662/662 663/663
f 664/664 665/665 666/666
f 667/667 668/668 669/669
f 670/670 671/671 672/672
f 673/673 674/674 675/675
f 676/676 677/677 678/678
f 679/679 680/680 681/681
f 682/682 683/683 684/684
f 685/685 686/686 687/687
f 688/688 689/689 690/690
f 691/691 692/692 693/693
f 694/694 695/695 696/696
f 697/697 698/698 699/699
f 700/700 701/701 702/702
f 703/703 704/704 705/705
f 706/706 707/707 708/708
f 709/709 710/710 711/711
f 712/712 713/713 714/714
f 715/715 716/716 717/717
f 718/718 719/719 720/720
f 721/721 722/722 723/723
f 724/724 725/725 726/726
f 727/727 728/728 729/729
f 730/730 731/731 732/732
f 733/733 734/734 735/735
f 736/736 737/737 738/738
f 739/739 740/740 741/741
f 742/742 743/743 744/744
f 745/745 746/746 747/747
f 748/748 749/749 750/750
f 751/751 752/752 753/753
f 754/754 755/755 756/756
f 757/757 758/758 759/759
f 760/760 761/761 762/762
f 763/763 764/764 765/765
f 766/766 767/767 768/768
f 769/769 770/770 771/771
f 772/772 773/773 774/774
f 775/775 776/776 777/777
f 778/778 779/779 780/780
f 781/781 782/782 783/783
f 784/784 785/785 786/786
f 787/787 788/788 789/789
f 790/790 791/791 792/792
f 793/793 794/794 795/795
f 796/796 797/797 798/798
f 799/799 800/800 801/801
f 802/802 803/803 804/804
f 805/805 806/806 807/807
f 808/808 809/809 810/810
f 811/811 812/812 813/813
f 814/814 815/815 816/816
f 817/817 818/818 819/819
f 820/820 821/821 822/822
f 823/823 824/824 825/825
f 826/826 827/827 828/828
f 829/829 830/830 831/831
f 832/832 833/833 834/834
f 835/835 836/836 837/837
f 838/838 839/839 840/840
f 841/841 842/842 843/843
f 844/844 845/845 846/846
f 847/847 848/848 849/849
f 850/850 851/851 852/852
f 853/853 854/854 855/855
f 856/856 857/857 858/858
f 859/859 860/860 861/861
f 862/862 863/863 864/864
f 865/865 866/866 867/867
f 868/868 869/869 870/870
f 871/871 872/872 873/873
f 874/874 875/875 876/876
f 877/877 878/878 879/879
f 880/880 881/881 882/882
f 883/883 884/884 885/885
f 886/886 887/887 888/888
f 889/889 890/890 891/891
f 892/892 893/893 894/894
f 895/895 896/896 897/897
f 898/898 899/899 900/900
f 901/901 902/902 903/903
f 904/904 905/905 906/906
f 907/907 908/908 909/909
f 910/910 911/911 912/912
f 913/913 914/914 915/915
f 916/916 917/917 918/918
f 919/919 920/920 921/921
f 922/922 923/923 924/924
f 925/925 926/926 927/927
f 928/928 929/929 930/930
f 931/931 932/932 933/933
f 934/934 935/935 936/936
f 937/937 938/938 939/939
f 940/940 941/941 942/942
f 943/943 944/944 945/945
f 946/946 947/947 948/948
f 949/949 950/950 951/951
f 952/952 953/953 954/954
f 955/955 956/956 957/957
f 958/958 959/959 960/960
f 961/961 962/962 963/963
f 964/964 965/965 966/966
f 967/967 968/968 969/969
f 970/970 971/971 972/972
f 973/973 974/974 975/975
f 976/976 977/977 978/978
f 979/979 980/980 981/981
f 982/982 983/983 984/984
f 985/985 986/986 987/987
f 988/988 989/989 990/990
f 991/991 992/992 993/993
f 994/994 995/995 996/996
f 997/997 998/998 999/999
f 1000/1000 1001/1001 1002/1002
f 1003/1003 1004/1004 1005/1005
f 1006/1006 1007/1007 1008/1008
f 1009/1009 1010/1010 1011/1011
f 1012/1012 1013/1013 1014/1014
f 1015/1015 1016/1016 1017/1017
f 1018/1018 1019/1019 1020/1020
f 1021/1021 1022/1022 1023/1023
f 1024/1024 1025/1025 1026/1026
f 1027/1027 1028/1028 1029/1029
f 1030/1030 1031/1031 1032/1032
f 1033/1033 1034/1034 1035/1035
f 1036/1036 1037/1037 1038/1038
f 1039/1039 1040/1040 1041/1041
f 1042/1042 1043/1043 1044/1044
f 1045/1045 1046/1046 1047/1047
f 1048/1048 1049/1049 1050/1050
f 1051/1051 1052/1052 1053/1053
f 1054/1054 1055/1055 1056/1056
f 1057/1057 1058/1058 1059/1059
f 1060/1060 1061/1061 1062/1062
f 1063/1063 1064/1064 1065/1065
f 1066/1066 1067/1067 1068/1068
f 1069/1069 1070/1070 1071/1071
f 1072/1072 1073/1073 1074/1074
f 1075/1075 1076/1076 1077/1077
f 1078/1078 1079/1079 1080/1080
f 1081/1081 1082/1082 1083/1083
f 1084/1084 1085/1085 1086/1086
f 1087/1087 1088/1088 1089/1089
f 1090/1090 1091/1091 1092/1092
f 1093/1093 1094/1094 1095/1095
f 1096/1096 1097/1097 1098/1098
f 1099/1099 1100/1100 1101/1101
f 1102/1102 1103/1103 1104/1104
f 1105/1105 1106/1106 1107/1107
f 1108/1108 1109/1109 1110/1110
f 1111/1111 1112/1112 1113/1113
f 1114/1114 1115/1115 1116/1116
f 1117/1117 1118/1118 1119/1119
f 1120/1120 1121/1121 1122/1122
f 1123/1123 1124/1124 1125/1125
f 1126/1126 1127/1127 1128/1128
f 1129/1129 1130/1130 1131/1131
f 1132/1132 1133/1133 1134/1134
f 1135/1135 1136/1136 1137/1137
f 1138/1138 1139/1139 1140/1140
f 1141/1141 1142/1142 1143/1143
f 1144/1144 1145/1145 1146/1146
f 1147/1147 1148/1148 1149/1149
f 1150/1150 1151/1151 1152/1152
f 1153/1153 1154/1154 1155/1155
f 1156/1156 1157/1157 1158/1158
f 1159/1159 1160/1160 1161/1161
f 1162/1162 1163/1163 1164/1164
f 1165/1165 1166/1166 1167/1167
f 1168/1168 1169/1169 1170/1170
f 1171/1171 1172/1172 1173/1173
f 1174/1174 1175/1175 1176/1176
f 1177/1177 1178/1178 1179/1179
f 1180/1180 1181/1181 1182/1182
f 1183/1183 1184/1184 1185/1185
f 1186/1186 1187/1187 1188/1188
f 1189/1189 1190/1190 1191/1191
f 1192/1192 1193/1193 1194/1194
f 1195/1195 1196/1196 1197/1197
f 1198/1198 1199/1199 1200/1200
f 1201/1201 1202/1202 1203/1203
f 1204/1204 1205/1205 1206/1206
f 1207/1207 1208/1208 1209/1209
f 1210/1210 1211/1211 1212/1212

g
